<?xml version="1.0" encoding="UTF-8"?>
<!DOCTYPE svg  PUBLIC '-//W3C//DTD SVG 1.1//EN'  'http://www.w3.org/Graphics/SVG/1.1/DTD/svg11.dtd'>
<svg version="1.1" xmlns="http://www.w3.org/2000/svg">
<defs>
<font id="Larsseit-Thin" horiz-adv-x="661">
<font-face font-family="Larsseit Thin" font-weight="200" ascent="800" bbox="-47 -230 951 896.13" cap-height="700" descent="-200" panose-1="0 0 0 0 0 0 0 0 0 0" underline-position="-100" underline-thickness="50" unicode-range="U+0020-00FE" units-per-em="1000" x-height="500"/>
<missing-glyph/>
<glyph glyph-name="space" horiz-adv-x="215" unicode=" "/>
<glyph d="M88 700h43v-513h-43v513zM77 67q20 22 49 11q10 -4 17 -11q22 -22 8 -53q-4 -7 -8 -12q-21 -21 -50 -10q-10 4 -16 10q-22 25 -8 54q4 6 8 11z" glyph-name="exclam" horiz-adv-x="219" unicode="!"/>
<glyph d="M47 713h49l-13 -193h-31zM176 713h49l-13 -193h-31z" glyph-name="quotedbl" horiz-adv-x="268" unicode='"'/>
<glyph d="M467 700h43l-33 -185h144v-40h-151l-38 -220h143v-40h-150l-38 -215h-43l38 215h-181l-38 -215h-43l38 215h-143v40h150l38 220h-142v40h149l33 185h43l-33 -185h181zM427 475h-181l-38 -220h181z" glyph-name="numbersign" horiz-adv-x="636" unicode="#"/>
<glyph d="M250 795h43v-84q107 -12 143 -103q14 -37 14 -82h-46q0 97 -74 131q-18 8 -37 11v-297q101 -41 141 -81q42 -40 42 -109q0 -115 -87 -166q-42 -23 -96 -27v-82h-43v82q-121 9 -170 103q-24 47 -24 107h46q0 -118 92 -155q26 -10 56 -13v310q-88 37 -130 77 q-40 41 -40 115q1 74 44 125q44 51 126 56v82zM430 181q0 63 -60 103q-29 19 -77 39v-294q98 9 127 91q10 28 10 61zM126 533q0 -55 27 -84q31 -30 97 -59v280q-95 -5 -118 -89q-6 -22 -6 -48z" glyph-name="dollar" horiz-adv-x="525" unicode="$"/>
<glyph d="M605 700h54l-463 -700h-54zM195 713q69 -1 113 -49q46 -48 46 -121q-1 -73 -45 -121q-46 -47 -114 -47q-70 1 -115 47q-45 49 -45 121q1 74 45 122q46 48 115 48zM75 543q0 -72 54 -108q30 -20 66 -20q66 0 99 57q19 32 19 71q0 76 -55 112q-28 18 -63 18q-67 0 -101 -57 q-19 -33 -19 -73zM607 325q69 -1 113 -49q46 -48 46 -121q-1 -73 -45 -121q-46 -47 -114 -47q-70 1 -115 47q-45 49 -45 121q1 74 45 122q46 48 115 48zM487 155q0 -72 54 -108q30 -20 66 -20q66 0 99 57q19 32 19 71q0 76 -55 112q-28 18 -63 18q-67 0 -101 -57 q-19 -33 -19 -73z" glyph-name="percent" horiz-adv-x="801" unicode="%"/>
<glyph d="M256 713q92 0 129 -72q17 -35 17 -78q0 -24 -8 -53q-3 -9 -11 -22q-3 -5 -8 -13q-10 -15 -20 -25q-22 -20 -37 -31l-19 -14l-21 -14l-20 -12l-3 -2l191 -216q12 38 12 86q0 61 -20 117l44 12q22 -55 22 -129q0 -63 -26 -122l112 -125h-59l-76 85q-72 -98 -201 -98 q-98 1 -159 49q-62 51 -62 142q0 92 87 160q24 19 55 38l15 9l-17 19q-73 81 -73 160q0 84 65 125q39 24 91 24zM254 28q120 1 173 89l-209 236l-9 -6q-47 -30 -69 -48q-52 -43 -60 -104q-1 -9 -1 -17q0 -108 98 -139q35 -11 77 -11zM146 564q-1 -65 61 -133l20 -23l8 5 l17 10l18 12q3 1 17 11t30 25q9 9 23 30q16 25 16 62q0 72 -54 99q-21 10 -46 10q-71 0 -99 -56q-10 -24 -11 -52z" glyph-name="ampersand" horiz-adv-x="593" unicode="&amp;"/>
<glyph d="M47 713h49l-13 -193h-31z" glyph-name="quotesingle" horiz-adv-x="139" unicode="'"/>
<glyph d="M205 730l32 -25q-72 -89 -106 -179q-32 -91 -32 -205q0 -115 32 -205q34 -91 106 -179l-32 -25q-133 167 -148 354q-2 28 -2 55q0 201 120 370q15 20 30 39z" glyph-name="parenleft" horiz-adv-x="252" unicode="("/>
<glyph d="M15 705l32 25q133 -167 148 -354q2 -28 2 -55q0 -201 -120 -370q-15 -20 -30 -39l-32 25q73 90 105 179q33 89 33 205q0 117 -33 205q-32 90 -105 179z" glyph-name="parenright" horiz-adv-x="252" unicode=")"/>
<glyph d="M152 737h41v-140l128 43l15 -38l-129 -43l83 -113l-32 -25l-83 113l-82 -113l-33 23l82 113l-131 43l13 39l128 -42v140z" glyph-name="asterisk" horiz-adv-x="347" unicode="*"/>
<glyph d="M214 556h44v-185h184v-42h-184v-185h-44v185h-184v42h184v185z" glyph-name="plus" horiz-adv-x="472" unicode="+"/>
<glyph d="M131 31q-1 -88 -63 -161l-19 9q31 52 39 112q-30 2 -41 30q-7 25 10 43q23 23 51 7q22 -13 23 -40z" glyph-name="comma" horiz-adv-x="176" unicode=","/>
<glyph d="M25 280h315v-41h-315v41z" glyph-name="hyphen" horiz-adv-x="365" unicode="-"/>
<glyph d="M58 67q24 27 55 7q28 -18 24 -46q-2 -15 -14 -26q-22 -22 -53 -8q-7 4 -12 8q-22 25 -8 54q4 6 8 11z" glyph-name="period" horiz-adv-x="182" unicode="."/>
<glyph d="M325 700h43l-320 -700h-43z" glyph-name="slash" horiz-adv-x="373" unicode="/"/>
<glyph d="M493 351q0 -167 -58 -265q-59 -98 -164 -99q-106 1 -164 99q-58 99 -58 265t58 263q59 98 164 99q106 -1 164 -99t58 -263zM401 585q-46 85 -130 86q-84 -1 -131 -86q-45 -85 -45 -234q0 -148 45 -235q47 -86 131 -87q85 1 130 87q46 87 46 235q0 150 -46 234z" glyph-name="zero" horiz-adv-x="542" unicode="0"/>
<glyph d="M177 700h39v-700h-45v587h-146v39q83 0 111 13q30 15 41 61z" glyph-name="one" horiz-adv-x="300" unicode="1"/>
<glyph d="M239 713q125 0 165 -98q16 -38 16 -87q-1 -98 -82 -206l-212 -279h314v-43h-375v34l236 312q63 83 71 147q2 17 2 35q-2 142 -135 143q-86 0 -122 -75q-17 -37 -17 -87h-45q0 122 81 175q44 29 103 29z" glyph-name="two" horiz-adv-x="477" unicode="2"/>
<glyph d="M254 713q84 0 132 -54q49 -53 49 -135q0 -101 -71 -146q-18 -10 -37 -16q55 -15 93 -62q39 -50 39 -120q0 -82 -57 -138q-56 -55 -144 -55q-127 0 -181 89q-28 48 -28 112h45q0 -119 99 -150q30 -9 65 -9q92 0 133 68q22 36 22 83q0 117 -118 150q-41 11 -92 11h-5v42h5 q146 0 176 80q10 26 10 61q0 110 -82 139q-24 8 -53 8q-94 0 -127 -79q-14 -34 -14 -78h-45q0 118 81 170q45 29 105 29z" glyph-name="three" horiz-adv-x="518" unicode="3"/>
<glyph d="M332 700h40v-496h107v-43h-107v-161h-45v161h-293v37zM327 204v406l-26 -46l-214 -360h240z" glyph-name="four" horiz-adv-x="508" unicode="4"/>
<glyph d="M99 700h347v-43h-302v-268q51 34 133 34q96 -1 151 -61q56 -61 56 -152q-1 -94 -56 -159q-56 -64 -151 -64q-131 0 -178 94q-20 42 -20 97h45q0 -119 102 -143q24 -6 51 -6q100 0 141 84q20 42 20 97q0 104 -73 148q-38 23 -88 23q-83 -1 -139 -38h-39v357z" glyph-name="five" horiz-adv-x="524" unicode="5"/>
<glyph d="M285 713q103 0 153 -78q26 -41 30 -96h-45q-13 132 -137.5 132t-162.5 -162q-17 -77 -18 -193q20 43 70 72q49 30 105 30q95 -1 150 -61q55 -62 55 -152q-1 -93 -55 -155q-56 -63 -150 -63q-95 1 -154 67q-60 66 -66 220q-1 25 -1 54q0 353 189 382q18 3 37 3zM280 376 q-66 -1 -116 -50q-49 -50 -49 -121q1 -67 46 -122q47 -54 119 -54q71 1 115 50q44 51 44 126q-1 72 -45 121q-45 50 -114 50z" glyph-name="six" horiz-adv-x="532" unicode="6"/>
<glyph d="M41 700h400v-37l-307 -663h-49l303 657h-347v43z" glyph-name="seven" horiz-adv-x="466" unicode="7"/>
<glyph d="M453 526q0 -92 -60 -143q-18 -15 -37 -22q46 -17 84 -61q38 -45 38 -116q-1 -87 -60 -142q-60 -55 -151 -55q-92 1 -151 55q-60 56 -60 142q0 94 66 148q26 20 55 29q-55 22 -81 86q-15 37 -15 79q1 81 51 133q51 54 135 54t135 -54q51 -53 51 -133zM102 184 q1 -70 49 -113q50 -42 116 -42q67 1 116 42q49 44 49 113q-1 71 -49 114q-50 43 -116 43q-67 -1 -116 -43q-49 -44 -49 -114zM367 631q-39 40 -100 40q-61 -1 -101 -40q-39 -41 -39 -105q1 -65 39 -104q40 -39 101 -39q62 1 101 39q39 40 39 104q-1 65 -40 105z" glyph-name="eight" horiz-adv-x="534" unicode="8"/>
<glyph d="M246 -13q-103 0 -153 78q-26 41 -30 96h45q14 -132 138 -132t162 161q17 77 18 193q-29 -58 -101 -87q-38 -14 -74 -14q-95 1 -150 61q-55 62 -55 152q1 93 55 155q55 63 150 63q95 -1 154 -67q60 -66 66 -220q1 -25 1 -54q0 -353 -189 -382q-18 -3 -37 -3zM251 324 q66 1 116 50q49 50 49 121q-1 68 -46 121q-47 55 -119 55q-71 -1 -115 -50q-44 -51 -44 -126q1 -72 44 -122q45 -49 115 -49z" glyph-name="nine" horiz-adv-x="532" unicode="9"/>
<glyph d="M58 497q24 27 55 7q28 -18 24 -46q-2 -15 -14 -26q-22 -22 -53 -8q-7 4 -12 8q-22 25 -8 54q4 6 8 11zM58 67q24 27 55 7q28 -18 24 -46q-2 -15 -14 -26q-22 -22 -53 -8q-7 4 -12 8q-22 25 -8 54q4 6 8 11z" glyph-name="colon" horiz-adv-x="182" unicode=":"/>
<glyph d="M134 31q-1 -88 -63 -161l-19 9q31 52 39 112q-30 2 -41 30q-7 25 10 43q23 23 51 7q22 -13 23 -40zM58 497q24 27 55 7q28 -18 24 -46q-2 -15 -14 -26q-22 -22 -53 -8q-7 4 -12 8q-22 25 -8 54q4 6 8 11z" glyph-name="semicolon" horiz-adv-x="182" unicode=";"/>
<glyph d="M167 446h51l-158 -196l158 -195h-51l-152 187v17z" glyph-name="less" horiz-adv-x="233" unicode="&lt;"/>
<glyph d="M30 473h412v-42h-412v42zM30 268h412v-42h-412v42z" glyph-name="equal" horiz-adv-x="472" unicode="="/>
<glyph d="M15 446h51l152 -187v-17l-152 -187h-51l158 195z" glyph-name="greater" horiz-adv-x="233" unicode="&gt;"/>
<glyph d="M189 717q78 0 132 -51q54 -50 54 -138q-1 -91 -60 -151q-10 -10 -32 -30q-57 -52 -70 -81q-7 -17 -7 -33v-46h-43v46q1 60 59 113q58 51 77 78q32 48 32 103q0 98 -73 134q-31 15 -69 15q-114 0 -139 -100q-6 -26 -6 -55h-43q0 133 97 178q40 18 91 18zM152 67 q24 27 55 7q28 -18 24 -46q-2 -15 -14 -26q-22 -22 -53 -8q-7 4 -12 8q-22 25 -8 54q4 6 8 11z" glyph-name="question" horiz-adv-x="388" unicode="?"/>
<glyph d="M385 392q-87 0 -126 -74q-20 -40 -20 -92q0 -104 69 -146q33 -19 75 -19q83 0 122 63q22 37 22 85v28q0 73 -42 114t-100 41zM397 588q157 -1 254 -103q98 -103 98 -258q0 -146 -78 -190q-25 -14 -55 -14q-62 0 -83 47q-4 10 -6 19q-34 -51 -107 -65q-19 -3 -38 -3 q-86 0 -135 57q-50 60 -50 148q1 90 51 148q51 58 136 58q78 0 124 -52q12 -14 19 -28v71h40v-308q2 -51 52 -52q87 2 88 164q-1 138 -86 230q-86 91 -224 91q-142 -1 -228 -91q-87 -92 -87 -230q1 -139 87 -230q88 -92 228 -92q74 0 136 29l15 -38q-70 -31 -151 -31 q-161 1 -259 103q-98 105 -98 259q1 157 98 259q100 102 259 102z" glyph-name="at" horiz-adv-x="789" unicode="@"/>
<glyph d="M312 700h37l291 -700h-52l-90 219h-336l-89 -219h-52zM343 595l-13 37l-13 -37l-139 -333h304z" glyph-name="A" unicode="A"/>
<glyph d="M85 700h167q128 0 181 -83q27 -42 27 -98q-1 -99 -88 -148q101 -31 127 -122q8 -26 8 -55q0 -117 -97 -167q-53 -27 -127 -27h-198v700zM283 340h-153v-298h153q116 0 160 75q20 34 20 77q0 89 -81 127q-43 19 -99 19zM252 658h-122v-276h129q96 0 137 65q20 32 20 72 q0 92 -83 125q-36 14 -81 14z" glyph-name="B" horiz-adv-x="545" unicode="B"/>
<glyph d="M386 713q174 0 259 -120q26 -37 41 -83h-52q-37 108 -146 145q-47 16 -102 16q-128 -1 -212 -92q-84 -92 -84 -229q1 -139 84 -230q84 -91 212 -91q147 0 218 101q19 28 30 60h52q-44 -139 -179 -184q-56 -19 -121 -19q-149 1 -246 103q-96 104 -96 260q1 156 96 259 q99 104 246 104z" glyph-name="C" horiz-adv-x="719" unicode="C"/>
<glyph d="M85 700h242q159 -1 253 -96q95 -96 95 -254q-1 -161 -94 -255q-96 -95 -254 -95h-242v700zM327 657h-197v-614h197q139 1 221 82q83 84 83 225q-1 141 -83 224q-84 83 -221 83z" glyph-name="D" horiz-adv-x="725" unicode="D"/>
<glyph d="M85 700h368v-43h-323v-274h288v-43h-288v-297h323v-43h-368v700z" glyph-name="E" horiz-adv-x="501" unicode="E"/>
<glyph d="M85 700h357v-43h-312v-284h265v-43h-265v-330h-45v700z" glyph-name="F" horiz-adv-x="469" unicode="F"/>
<glyph d="M386 713q174 0 259 -120q26 -37 41 -83h-52q-37 108 -146 145q-47 16 -102 16q-128 -1 -212 -92q-84 -92 -84 -229q1 -139 84 -230q84 -91 212 -91q180 0 240 131q27 58 27 137h-252v43h298v-33q-1 -150 -82 -235t-231 -85q-149 1 -246 103q-96 104 -96 260q1 156 96 259 q99 104 246 104z" glyph-name="G" horiz-adv-x="743" unicode="G"/>
<glyph d="M570 700h45v-700h-45v340h-440v-340h-45v700h45v-317h440v317z" glyph-name="H" horiz-adv-x="700" unicode="H"/>
<glyph d="M85 700h45v-700h-45v700z" glyph-name="I" horiz-adv-x="215" unicode="I"/>
<glyph d="M349 700h45v-512q0 -148 -103 -188q-33 -13 -73 -13q-176 2 -189 206h45q9 -163 144 -164q107 0 127 110q4 23 4 49v512z" glyph-name="J" horiz-adv-x="470" unicode="J"/>
<glyph d="M494 700h58l-248 -305l330 -395h-59l-299 360l-137 -166v-194h-45v700h45v-437z" glyph-name="K" horiz-adv-x="657" unicode="K"/>
<glyph d="M84 700h45v-657h333v-43h-378v700z" glyph-name="L" horiz-adv-x="484" unicode="L"/>
<glyph d="M734 700h42v-700h-45v598l-18 -43l-267 -555h-31l-267 555l-18 43v-598h-45v700h42l280 -576l23 -50l23 50z" glyph-name="M" horiz-adv-x="861" unicode="M"/>
<glyph d="M562 700h45v-700h-42l-408 580l-27 40v-620h-45v700h42l405 -575l30 -43v618z" glyph-name="N" horiz-adv-x="692" unicode="N"/>
<glyph d="M396 713q153 -1 252 -104t99 -258q-1 -157 -99 -260q-100 -104 -252 -104q-152 1 -253 104q-99 104 -99 260q1 156 99 259q99 103 253 103zM396 671q-133 -1 -220 -92q-86 -93 -86 -228q1 -138 86 -230q88 -92 220 -92q132 1 218 92q87 92 87 230q0 137 -87 228 q-87 92 -218 92z" glyph-name="O" horiz-adv-x="791" unicode="O"/>
<glyph d="M85 700h189q120 0 178 -84q34 -51 34 -119q-1 -90 -58 -145t-154 -55h-144v-297h-45v700zM274 657h-144v-317h144q100 0 144 70q24 38 24 87q0 92 -72 135q-42 25 -96 25z" glyph-name="P" horiz-adv-x="511" unicode="P"/>
<glyph d="M396 713q153 -1 252 -104t99 -258q0 -157 -101 -261q-35 -37 -79 -61l133 -133h-64l-113 113q-61 -22 -127 -22q-152 1 -253 104q-99 104 -99 260q1 156 99 259q99 103 253 103zM396 671q-133 -1 -220 -92q-86 -93 -86 -228q1 -138 86 -230q88 -92 220 -92q47 0 93 14 l-138 138h63l120 -120q109 55 149 177q18 54 18 113q0 137 -87 228q-87 92 -218 92z" glyph-name="Q" horiz-adv-x="791" unicode="Q"/>
<glyph d="M85 700h166q123 0 179 -84q33 -49 33 -115q0 -117 -93 -168q-24 -13 -52 -20l175 -313h-52l-169 305h-142v-305h-45v700zM251 657h-121v-309h121q103 0 147 71q21 36 21 82q0 94 -76 135q-40 21 -92 21z" glyph-name="R" horiz-adv-x="517" unicode="R"/>
<glyph d="M252 713q121 0 167 -89q21 -42 21 -98h-46q0 101 -78 133q-29 12 -64 12q-97 0 -126 -78q-10 -27 -10 -60q1 -59 33 -89q37 -31 121 -67q109 -44 152 -84q44 -42 44 -112q0 -115 -88 -166q-48 -28 -114 -28q-130 0 -187 91q-31 51 -31 120h46q0 -118 93 -155 q35 -14 79 -14q104 0 141 80q15 32 15 72q-1 53 -38 86q-38 35 -132 69q-98 42 -138 80q-42 41 -42 116q1 76 47 129q47 52 135 52z" glyph-name="S" horiz-adv-x="507" unicode="S"/>
<glyph d="M9 700h581v-43h-268v-657h-45v657h-268v43z" glyph-name="T" horiz-adv-x="599" unicode="T"/>
<glyph d="M561 700h45v-428q0 -209 -150 -266q-51 -19 -115 -19q-189 0 -244 153q-21 57 -21 132v428h45v-428q2 -242 220 -243q188 0 216 180q4 30 4 63v428z" glyph-name="U" horiz-adv-x="682" unicode="U"/>
<glyph d="M590 700h50l-291 -700h-37l-291 700h50l246 -595l13 -42l13 42z" glyph-name="V" unicode="V"/>
<glyph d="M904 700h47l-233 -700h-35l-183 569l-13 45l-13 -45l-183 -569h-35l-233 700h47l192 -571l13 -50l12 50l185 571h30l185 -571l12 -50l13 50z" glyph-name="W" horiz-adv-x="974" unicode="W"/>
<glyph d="M559 700h56l-256 -341l270 -359h-55l-243 322l-242 -322h-55l269 359l-255 341h56l227 -303z" glyph-name="X" horiz-adv-x="663" unicode="X"/>
<glyph d="M588 700h54l-289 -430v-270h-45v270l-289 430h54l228 -343l29 -47l29 47z" glyph-name="Y" unicode="Y"/>
<glyph d="M39 700h497v-35l-443 -622h453v-43h-513v35l443 622h-437v43z" glyph-name="Z" horiz-adv-x="579" unicode="Z"/>
<glyph d="M70 716h151v-41h-108v-711h108v-41h-151v793z" glyph-name="bracketleft" horiz-adv-x="246" unicode="["/>
<glyph d="M5 700h43l320 -700h-43z" glyph-name="backslash" horiz-adv-x="373" unicode="\"/>
<glyph d="M25 716h151v-793h-151v41h108v711h-108v41z" glyph-name="bracketright" horiz-adv-x="246" unicode="]"/>
<glyph d="M23 462l246 298l247 -298h-52l-195 235l-193 -235h-53z" glyph-name="asciicircum" horiz-adv-x="539" unicode="^"/>
<glyph d="M25 0h585v-41h-585v41z" glyph-name="underscore" horiz-adv-x="635" unicode="_"/>
<glyph d="M10 732h53l132 -158h-53z" glyph-name="grave" horiz-adv-x="205" unicode="`"/>
<glyph d="M231 511q129 0 158 -113q7 -29 7 -63v-335h-44v76q-39 -65 -120 -82q-23 -5 -45 -5q-86 0 -121 64q-16 29 -16 64q2 110 132 140l170 37v41q0 135 -120 135q-91 0 -116 -72q-8 -22 -8 -49h-45q0 88 68 134q43 28 100 28zM352 192v62l-162 -37q-85 -21 -94 -82 q-1 -9 -1 -18q0 -66 59 -83q16 -4 33 -4q79 1 128 58q37 47 37 104z" glyph-name="a" horiz-adv-x="471" unicode="a"/>
<glyph d="M83 730h43v-327q17 41 67 75q49 33 117 33q108 -1 171 -74q64 -74 64 -187q-1 -115 -63 -188t-170 -73q-66 1 -117 34q-53 35 -69 72v-95h-43v730zM310 470q-77 -1 -131 -56q-53 -57 -53 -151v-35q1 -93 54 -145q55 -53 132 -53q88 1 138 61q51 61 51 159q-1 96 -53 158 q-54 62 -138 62z" glyph-name="b" horiz-adv-x="583" unicode="b"/>
<glyph d="M273 511q120 0 183 -84q20 -28 31 -62h-46q-27 73 -108 97q-29 8 -60 8q-82 -1 -137 -63q-54 -62 -54 -157q1 -94 54 -157q56 -63 137 -63q101 0 149 70q11 17 18 35h47q-31 -98 -128 -132q-40 -14 -86 -14q-101 1 -169 74q-66 76 -66 187q0 112 66 186q68 75 169 75z " glyph-name="c" horiz-adv-x="531" unicode="c"/>
<glyph d="M457 730h43v-730h-43v95q-17 -37 -69 -72q-52 -34 -117 -34q-109 1 -171 73q-62 75 -62 188q1 114 63 187q66 74 172 74q67 0 117 -33q51 -35 67 -75v327zM273 470q-86 -1 -139 -62q-52 -62 -52 -158q0 -98 51 -159t138 -61q78 1 132 53q54 53 54 145v35q-1 96 -54 151 q-54 56 -130 56z" glyph-name="d" horiz-adv-x="583" unicode="d"/>
<glyph d="M266 511q136 0 194 -103q34 -60 34 -144v-30h-412q4 -92 56 -148q55 -56 133 -56q117 0 162 88q4 9 7 17h47q-34 -109 -146 -138q-33 -8 -70 -8q-102 0 -168 72q-65 73 -65 189q1 114 63 187q64 74 165 74zM266 470q-79 -1 -129 -55q-50 -56 -55 -141h368q0 128 -90 175 q-41 21 -94 21z" glyph-name="e" horiz-adv-x="547" unicode="e"/>
<glyph d="M233 736q40 0 69 -14v-41q-35 14 -69 14q-75 -2 -76 -94v-101h135v-39h-135v-461h-43v461h-101v39h101v101q0 92 64 123q25 12 55 12z" glyph-name="f" horiz-adv-x="307" unicode="f"/>
<glyph d="M317 500h173v-41h-107q46 -48 46 -125q-1 -76 -50 -127q-51 -50 -134 -50q-74 1 -123 40q-37 -30 -38 -69q0 -50 53 -63q14 -3 28 -3h143q126 0 149 -94q4 -18 4 -38q0 -108 -103 -142q-41 -14 -93 -14q-171 0 -204 103q-7 22 -7 47q0 70 54 103q3 2 5 3q-60 22 -71 78 q-2 10 -2 20q0 62 54 99q-33 46 -33 107q0 104 79 151q45 26 105 26q38 0 72 -11zM105 334q0 -84 66 -119q33 -17 74 -17q89 0 124 67q16 31 16 69q0 90 -71 122q-31 14 -69 14q-94 0 -127 -71q-13 -29 -13 -65zM308 21h-116q-55 0 -81 -46q-13 -23 -13 -51q2 -108 167 -109 q151 2 152 115q0 65 -64 85q-21 6 -45 6z" glyph-name="g" horiz-adv-x="478" unicode="g"/>
<glyph d="M83 730h43v-311q13 34 53 63q43 29 94 29q105 0 145 -91q19 -43 19 -98v-322h-43v323q0 112 -78 140q-21 7 -45 7q-79 0 -120 -73q-25 -47 -25 -110v-287h-43v730z" glyph-name="h" horiz-adv-x="512" unicode="h"/>
<glyph d="M88 500h43v-500h-43v500zM82 691q22 22 48 6q5 -3 8 -6q21 -19 8 -46q-4 -6 -8 -11q-23 -21 -49 -6q-4 3 -7 6q-21 21 -8 46q4 7 8 11z" glyph-name="i" horiz-adv-x="219" unicode="i"/>
<glyph d="M88 500h43v-587q-1 -91 -46 -117q-37 -22 -84 -22q-27 0 -48 6v42q23 -7 48 -7q71 0 84 60q3 17 3 38v587zM82 691q22 22 48 6q5 -3 8 -6q21 -19 8 -46q-4 -6 -8 -11q-23 -21 -49 -6q-4 3 -7 6q-21 21 -8 46q4 7 8 11z" glyph-name="j" horiz-adv-x="219" unicode="j"/>
<glyph d="M93 730h43v-495l229 265h56l-178 -204l204 -296h-51l-182 263l-78 -92v-171h-43v730z" glyph-name="k" horiz-adv-x="460" unicode="k"/>
<glyph d="M88 730h43v-730h-43v730z" glyph-name="l" horiz-adv-x="219" unicode="l"/>
<glyph d="M579 511q106 0 145 -92q18 -43 18 -97v-322h-43v323q0 113 -78 140q-21 7 -44 7q-77 0 -118 -73q-23 -44 -25 -102v-295h-43v323q0 113 -78 140q-21 7 -44 7q-78 0 -118 -73q-25 -47 -25 -110v-287h-43v500h43v-81q13 35 52 63q42 29 93 29q114 -1 150 -106q30 66 95 93 q31 13 63 13z" glyph-name="m" horiz-adv-x="817" unicode="m"/>
<glyph d="M273 511q105 0 145 -91q19 -43 19 -98v-322h-43v323q0 112 -78 140q-21 7 -45 7q-79 0 -120 -73q-25 -47 -25 -110v-287h-43v500h43v-81q13 34 53 63q43 29 94 29z" glyph-name="n" horiz-adv-x="512" unicode="n"/>
<glyph d="M284 511q108 -1 176 -74q68 -75 68 -187q-1 -113 -68 -187q-69 -74 -176 -74q-110 1 -178 74q-68 75 -68 187q1 113 68 187q69 74 178 74zM284 470q-91 -1 -147 -62q-55 -62 -55 -158q1 -96 55 -158q57 -62 147 -62q89 1 145 62q55 63 55 158q-1 97 -55 158 q-57 62 -145 62z" glyph-name="o" horiz-adv-x="566" unicode="o"/>
<glyph d="M324 511q109 -1 170 -73q63 -74 63 -188q-1 -115 -64 -188t-171 -73q-68 0 -117 33q-51 35 -67 75v-312h-43v715h43v-95q17 37 69 71q54 35 117 35zM324 470q-78 -1 -132 -53q-54 -53 -54 -145v-35q1 -96 53 -152q54 -55 131 -55q85 1 138 62q53 63 53 158q-1 97 -51 158 q-52 62 -138 62z" glyph-name="p" horiz-adv-x="595" unicode="p"/>
<glyph d="M271 511q64 -1 117 -35q53 -35 69 -71v95h43v-715h-43v312q-17 -41 -67 -75q-50 -33 -117 -33q-108 1 -172 73q-63 74 -63 188q1 114 62 188q63 73 171 73zM271 470q-87 -1 -138 -62q-51 -62 -51 -158q1 -97 52 -158q54 -62 139 -62q78 1 130 55q54 56 54 152v35 q-1 93 -54 145q-55 53 -132 53z" glyph-name="q" horiz-adv-x="595" unicode="q"/>
<glyph d="M289 505v-41q-62 -1 -103 -44q-50 -54 -50 -144v-276h-43v500h43v-93q23 65 91 88q30 10 62 10z" glyph-name="r" horiz-adv-x="311" unicode="r"/>
<glyph d="M214 511q99 0 137 -71q16 -32 16 -73h-46q0 87 -81 101q-13 2 -28 2q-87 0 -104 -63q-3 -13 -3 -26q1 -42 24 -62q25 -19 94 -40q117 -35 147 -85q16 -27 16 -63q0 -82 -71 -121q-41 -21 -93 -21q-106 0 -153 70q-23 37 -23 82h46q0 -85 83 -106q22 -5 48 -5q91 0 113 65 q6 17 6 36q0 53 -56 82q-29 14 -77 28q-105 30 -133 76q-15 26 -15 63q0 78 68 113q37 18 85 18z" glyph-name="s" horiz-adv-x="435" unicode="s"/>
<glyph d="M109 630h43l-1 -130h142v-41h-142l-2 -335q0 -67 33 -82q18 -8 44 -8q37 0 67 10v-40q-26 -11 -67 -11q-111 0 -119 107q-1 12 -1 24l2 335h-105v41h105z" glyph-name="t" horiz-adv-x="322" unicode="t"/>
<glyph d="M381 500h43v-500h-43v81q-13 -35 -52 -63q-42 -29 -92 -29q-106 0 -145 94q-17 42 -17 95v322h43v-323q0 -116 80 -141q19 -6 41 -6q79 0 118 75q24 46 24 108v287z" glyph-name="u" horiz-adv-x="507" unicode="u"/>
<glyph d="M420 500h46l-202 -500h-40l-202 500h46l165 -411l11 -33l11 33z" glyph-name="v" horiz-adv-x="488" unicode="v"/>
<glyph d="M688 500h45l-166 -500h-40l-150 421l-149 -421h-40l-166 500h45l132 -397l11 -38l11 38l139 397h35l139 -397l11 -38l11 38z" glyph-name="w" horiz-adv-x="755" unicode="w"/>
<glyph d="M391 500h53l-173 -239l189 -261h-53l-163 224l-162 -224h-53l189 261l-173 239h53l146 -203z" glyph-name="x" horiz-adv-x="489" unicode="x"/>
<glyph d="M420 500h46l-289 -715h-47l91 223l-199 492h46l165 -411l11 -33l11 33z" glyph-name="y" horiz-adv-x="488" unicode="y"/>
<glyph d="M38 500h361v-35l-307 -424h327v-41h-384v35l307 424h-304v41z" glyph-name="z" horiz-adv-x="440" unicode="z"/>
<glyph d="M197 716h33v-41h-33q-64 -2 -65 -72v-191q0 -70 -51 -93q50 -24 51 -92v-191q2 -71 65 -72h33v-41h-33q-84 0 -103 73q-5 19 -5 40v191q-2 71 -65 72h-19v41h19q64 2 65 72v191q0 89 71 108q18 5 37 5z" glyph-name="braceleft" horiz-adv-x="255" unicode="{"/>
<glyph d="M75 726h43v-793h-43v793z" glyph-name="bar" horiz-adv-x="193" unicode="|"/>
<glyph d="M25 716h33q84 0 103 -73q5 -19 5 -40v-191q2 -71 65 -72h19v-41h-19q-64 -2 -65 -72v-191q0 -89 -71 -108q-18 -5 -37 -5h-33v41h33q64 2 65 72v191q1 69 51 92q-51 23 -51 93v191q-2 71 -65 72h-33v41z" glyph-name="braceright" horiz-adv-x="255" unicode="}"/>
<glyph d="M179 423q65 0 110 -44l3 -3q49 -45 101 -46q81 2 113 87l34 -22q-44 -111 -147 -111q-67 2 -113 46q-46 46 -101 47q-81 -2 -113 -87l-34 21q46 111 147 112z" glyph-name="asciitilde" horiz-adv-x="572" unicode="~"/>
<glyph d="M132 -200h-43v513h43v-513zM143 432q-21 -21 -50 -10q-10 4 -16 10q-22 25 -8 54q4 6 8 11q20 22 49 11q10 -4 17 -11q22 -22 8 -53q-4 -7 -8 -12z" glyph-name="exclamdown" horiz-adv-x="219" unicode="¡"/>
<glyph d="M253 594h43v-84q118 -10 171 -101q12 -21 20 -44h-46q-30 76 -114 98q-15 4 -31 6v-438q91 9 133 81q6 11 11 23h47q-31 -99 -130 -133q-30 -9 -61 -12v-84h-43v84q-95 8 -155 80q-60 74 -60 180q1 106 60 179q62 73 155 81v84zM253 31v438q-74 -8 -123 -70 q-48 -62 -48 -149q0 -88 48 -150t123 -69z" glyph-name="cent" horiz-adv-x="531" unicode="¢"/>
<glyph d="M150 356h173v-43h-162q6 -38 6 -61q-1 -94 -56 -180l-19 -29h225q96 0 105 84q1 10 1 20h45q-4 -118 -103 -142q-23 -5 -48 -5h-282v34l37 56q51 76 51 162q0 31 -7 61h-99v43h86l-14 36q-9 21 -15 40q-14 40 -14 85q1 90 51 142q52 54 131 54q124 0 162 -100 q13 -34 14 -77h-45q0 96 -76 125q-25 9 -55 9q-97 0 -126 -86q-10 -31 -10 -67q0 -28 6 -53q6 -23 20 -60z" glyph-name="sterling" horiz-adv-x="483" unicode="£"/>
<glyph d="M417 412l126 125l26 -27l-125 -124q42 -51 42 -123q-1 -73 -42 -124l125 -124l-26 -26l-126 124q-74 -59 -162 -35q-37 11 -68 35l-125 -124l-27 26l125 124q-42 53 -42 124t42 123l-125 124l27 27l125 -125q73 60 161 36q38 -11 69 -36zM302 417q-62 -1 -103 -44 q-41 -45 -41 -110q1 -65 41 -109q42 -44 103 -44q61 1 102 44q42 44 42 109q-1 66 -42 109q-40 45 -102 45z" glyph-name="currency" horiz-adv-x="604" unicode="¤"/>
<glyph d="M588 700h54l-284 -422h129v-43h-134v-74h134v-43h-134v-118h-45v118h-134v43h134v74h-134v43h128l-283 422h54l228 -343l29 -47l29 47z" glyph-name="yen" unicode="¥"/>
<glyph d="M75 726h43v-280h-43v280zM75 213h43v-280h-43v280z" glyph-name="brokenbar" horiz-adv-x="193" unicode="¦"/>
<glyph d="M251 720q106 0 153 -70q23 -37 23 -82h-46q0 85 -83 106q-22 5 -48 5q-91 0 -113 -65q-6 -17 -6 -36q0 -60 68 -88q28 -11 68 -19q132 -26 167 -81q18 -28 18 -69q-1 -77 -85 -123q63 -37 64 -107q0 -82 -75 -120q-43 -22 -99 -22q-114 0 -163 72q-23 35 -23 80h46 q0 -82 84 -104q26 -7 57 -7q97 0 122 64q7 18 7 37q0 59 -72 88q-30 11 -74 20q-136 28 -173 79q-22 30 -22 74q1 79 89 126q-48 35 -48 100q0 82 71 121q41 21 93 21zM251 237q53 -12 69 -18q87 37 88 102q0 56 -56 83q-34 16 -95 29q-42 7 -81 23q-85 -36 -86 -104 q1 -46 34 -71q33 -24 127 -44z" glyph-name="section" horiz-adv-x="494" unicode="§"/>
<glyph d="M21 655q21 23 48 3q24 -18 16 -42q-4 -9 -10 -15q-21 -23 -48 -3q-24 18 -16 42q4 9 10 15zM191 655q21 23 48 3q24 -18 16 -42q-4 -9 -10 -15q-21 -23 -48 -3q-24 18 -16 42q4 9 10 15z" glyph-name="dieresis" horiz-adv-x="266" unicode="¨"/>
<glyph d="M288 621q98 -1 124 -90h-46q-18 51 -78 51q-58 0 -84 -52q-12 -25 -12 -54q0 -64 48 -93q22 -13 48 -13q63 1 80 53h45q-26 -91 -125 -92q-77 0 -117 61q-23 37 -23 84q0 81 61 122q35 23 79 23zM286 737q112 -1 183 -74q71 -75 71 -187q-1 -113 -71 -187 q-72 -74 -183 -74q-115 1 -186 74q-70 74 -70 187q1 114 70 187q72 74 186 74zM74 476q1 -96 58 -158q60 -62 154 -62q93 1 152 62q58 63 58 158q-1 97 -58 158q-58 62 -152 62q-95 -1 -154 -62q-58 -62 -58 -158z" glyph-name="copyright" horiz-adv-x="570" unicode="©"/>
<glyph d="M185 707q105 0 121 -90q2 -15 2 -30v-228h-39l-1 53q-25 -48 -89 -58q-13 -2 -25 -2q-76 0 -96 56q-6 16 -6 34q2 73 97 93l118 23v28q-2 84 -82 85q-63 0 -79 -49q-4 -13 -4 -27h-41q1 69 60 98q29 14 64 14zM267 491v35l-108 -22q-66 -14 -66 -60q0 -48 48 -56 q9 -2 18 -2q51 1 82 37q26 33 26 68z" glyph-name="ordfeminine" horiz-adv-x="374" unicode="ª"/>
<glyph d="M167 446h51l-158 -196l158 -195h-51l-152 187v17zM361 446h51l-158 -196l158 -195h-51l-152 187v17z" glyph-name="guillemotleft" horiz-adv-x="427" unicode="«"/>
<glyph d="M38 414h472v-248h-39v209h-433v39z" glyph-name="logicalnot" horiz-adv-x="548" unicode="¬"/>
<glyph d="M286 737q112 -1 183 -74q71 -75 71 -187q-1 -113 -71 -187q-72 -74 -183 -74q-115 1 -186 74q-70 74 -70 187q1 114 70 187q72 74 186 74zM74 476q1 -96 58 -158q60 -62 154 -62q93 1 152 62q58 63 58 158q-1 97 -58 158q-58 62 -152 62q-95 -1 -154 -62 q-58 -62 -58 -158zM200 616h88q66 0 87 -50q7 -17 7 -36q-1 -57 -54 -77l66 -117h-48l-63 111h-41v-111h-42v280zM288 577h-46v-93h46q44 0 50 36q1 5 1 10q0 40 -40 46q-6 1 -11 1z" glyph-name="registered" horiz-adv-x="570" unicode="®"/>
<glyph d="M10 646h245v-41h-245v41z" glyph-name="overscore" horiz-adv-x="265" unicode="¯"/>
<glyph d="M164 722q61 -1 101 -39q41 -40 41 -101q0 -81 -64 -120q-35 -20 -78 -20q-79 0 -118 60q-23 35 -23 80q1 63 40 101q41 39 101 39zM164 681q-59 0 -85 -48q-12 -24 -12 -51q0 -62 50 -88q22 -11 47 -11q59 0 86 48q12 24 12 51q0 62 -50 88q-23 11 -48 11z" glyph-name="degree" horiz-adv-x="329" unicode="°"/>
<glyph d="M214 641h44v-185h184v-42h-184v-185h-44v185h-184v42h184v185zM30 147h412v-42h-412v42z" glyph-name="plusminus" horiz-adv-x="472" unicode="±"/>
<glyph d="M160 807q90 0 109 -71q5 -17 5 -36q-1 -54 -50 -114l-116 -138h175v-40h-233v31l138 164q43 51 43 96q-2 68 -71 69q-59 0 -71 -54q-3 -12 -3 -25h-42q0 76 60 106q25 12 56 12z" glyph-name="two.sups" horiz-adv-x="319" unicode="²"/>
<glyph d="M284 699q0 -65 -57 -86q-3 -1 -5 -2q49 -11 68 -57q8 -20 8 -41q0 -68 -60 -98q-29 -14 -65 -14q-91 0 -120 66q-10 23 -10 51h42q0 -69 71 -77q8 -1 17 -1q59 0 77 44q6 15 6 30q0 72 -97 78h-15h-9v37h9q89 0 96 56q1 7 1 13q0 56 -50 68q-10 2 -21 2q-61 0 -73 -54 q-2 -11 -2 -22h-42q0 78 63 105q25 10 54 10q76 0 104 -58q10 -23 10 -50z" glyph-name="three.sups" horiz-adv-x="345" unicode="³"/>
<glyph d="M142 732h53l-132 -158h-53z" glyph-name="acute" horiz-adv-x="205" unicode="´"/>
<glyph d="M389 500h43v-500h-43v81q-13 -35 -52 -63q-42 -29 -92 -29q-77 1 -119 50v-254h-43v715h43v-323q0 -116 80 -141q19 -6 41 -6q79 0 118 75q24 46 24 108v287z" glyph-name="mu" horiz-adv-x="515" unicode="µ"/>
<glyph d="M226 700h325v-37h-91v-743h-39v743h-139v-743h-39v397h-17q-89 1 -145 53q-56 54 -56 137q1 86 56 139q56 54 145 54z" glyph-name="paragraph" horiz-adv-x="576" unicode="¶"/>
<glyph d="M58 293q25 22 54 8q6 -4 11 -8q22 -20 11 -49q-4 -10 -11 -17q-22 -22 -53 -8q-7 4 -12 8q-21 21 -10 50q4 10 10 16z" glyph-name="middot" horiz-adv-x="182" unicode="·"/>
<glyph d="M81 6h36l-18 -74q4 1 17 1q58 0 77 -46q6 -16 6 -34q0 -52 -50 -74q-21 -9 -45 -9q-63 1 -94 40l26 28q26 -30 67 -30q45 0 56 32q2 6 2 13q0 34 -33 42q-8 2 -15 2q-19 0 -39 -6l-21 6z" glyph-name="cedilla" horiz-adv-x="209" unicode="¸"/>
<glyph d="M127 800h34v-392h-42v313h-88v33q70 0 87 24q6 10 9 22z" glyph-name="one.sups" horiz-adv-x="224" unicode="¹"/>
<glyph d="M389 529q-1 -78 -49 -127q-49 -50 -125 -50q-76 1 -126 50q-48 50 -48 127q1 79 48 128q51 50 126 50q77 -1 125 -50q49 -50 49 -128zM311 630q-36 40 -96 40q-60 -1 -97 -40q-36 -40 -36 -100q1 -61 36 -101q38 -40 97 -40q61 1 96 40q37 41 37 101q-1 62 -37 100z" glyph-name="ordmasculine" horiz-adv-x="430" unicode="º"/>
<glyph d="M15 446h51l152 -187v-17l-152 -187h-51l158 195zM209 446h51l152 -187v-17l-152 -187h-51l158 195z" glyph-name="guillemotright" horiz-adv-x="427" unicode="»"/>
<glyph d="M488 392h45v-270h61v-38h-61v-84h-42v84h-176v34zM491 122v205l-14 -25l-116 -180h130zM127 700h34v-392h-42v313h-88v33q70 0 87 24q6 10 9 22zM507 700h54l-463 -700h-54z" glyph-name="onequarter" horiz-adv-x="627" unicode="¼"/>
<glyph d="M511 399q90 0 109 -71q5 -17 5 -36q-1 -54 -50 -114l-116 -138h175v-40h-233v31l138 164q43 51 43 96q-2 68 -71 69q-59 0 -71 -54q-3 -12 -3 -25h-42q0 76 60 106q25 12 56 12zM127 700h34v-392h-42v313h-88v33q70 0 87 24q6 10 9 22zM507 700h54l-463 -700h-54z" glyph-name="onehalf" horiz-adv-x="670" unicode="½"/>
<glyph d="M284 599q0 -65 -57 -86q-3 -1 -5 -2q49 -11 68 -57q8 -20 8 -41q0 -68 -60 -98q-29 -14 -65 -14q-91 0 -120 66q-10 23 -10 51h42q0 -69 71 -77q8 -1 17 -1q59 0 77 44q6 15 6 30q0 72 -97 78h-15h-9v37h9q89 0 96 56q1 7 1 13q0 56 -50 68q-10 2 -21 2q-61 0 -73 -54 q-2 -11 -2 -22h-42q0 78 63 105q25 10 54 10q76 0 104 -58q10 -23 10 -50zM579 392h45v-270h61v-38h-61v-84h-42v84h-176v34zM582 122v205l-14 -25l-116 -180h130zM598 700h54l-463 -700h-54z" glyph-name="threequarters" horiz-adv-x="718" unicode="¾"/>
<glyph d="M199 -217q-78 0 -132 51q-54 50 -54 138q1 91 60 151q10 10 32 30q57 52 70 81q7 17 7 33v46h43v-46q-1 -61 -60 -113q-55 -50 -71 -72q-37 -50 -37 -109q0 -98 73 -134q31 -15 69 -15q114 0 139 100q6 26 6 55h43q0 -133 -97 -178q-40 -18 -91 -18zM235 432 q-22 -22 -53 -8q-7 4 -12 8q-22 25 -8 54q4 6 8 11q24 27 55 7q28 -18 24 -46q-2 -15 -14 -26z" glyph-name="questiondown" horiz-adv-x="388" unicode="¿"/>
<glyph d="M312 700h37l291 -700h-52l-90 219h-336l-89 -219h-52zM343 595l-13 37l-13 -37l-139 -333h304zM182 828h69l116 -98h-65z" glyph-name="Agrave" unicode="À"/>
<glyph d="M312 700h37l291 -700h-52l-90 219h-336l-89 -219h-52zM343 595l-13 37l-13 -37l-139 -333h304zM406 828h69l-120 -98h-65z" glyph-name="Aacute" unicode="Á"/>
<glyph d="M312 700h37l291 -700h-52l-90 219h-336l-89 -219h-52zM343 595l-13 37l-13 -37l-139 -333h304zM312 828h38l132 -98h-70l-82 58l-81 -58h-70z" glyph-name="Acircumflex" unicode="Â"/>
<glyph d="M312 700h37l291 -700h-52l-90 219h-336l-89 -219h-52zM343 595l-13 37l-13 -37l-139 -333h304zM269 841q42 0 72 -36q23 -27 34 -31q8 -4 17 -4q51 2 52 62h40q0 -85 -64 -101q-14 -3 -28 -3q-42 0 -72 36q-23 27 -34 31q-8 4 -17 4q-51 -2 -52 -62h-40q0 85 64 101 q14 3 28 3z" glyph-name="Atilde" unicode="Ã"/>
<glyph d="M312 700h37l291 -700h-52l-90 219h-336l-89 -219h-52zM343 595l-13 37l-13 -37l-139 -333h304zM218 800q21 23 48 3q24 -18 16 -42q-4 -9 -10 -15q-21 -23 -48 -3q-24 18 -16 42q4 9 10 15zM388 800q21 23 48 3q24 -18 16 -42q-4 -9 -10 -15q-21 -23 -48 -3 q-24 18 -16 42q4 9 10 15z" glyph-name="Adieresis" unicode="Ä"/>
<glyph d="M312 700h37l291 -700h-52l-90 219h-336l-89 -219h-52zM343 595l-13 37l-13 -37l-139 -333h304zM268 871q34 34 84 22q24 -6 40 -22q36 -33 24 -80q-7 -24 -24 -41q-34 -33 -84 -22q-24 7 -40 22q-35 35 -22 83q7 23 22 38zM365 846q-23 23 -54 10q-9 -4 -16 -10 q-22 -24 -9 -56q4 -8 9 -14q23 -23 54 -10q9 4 16 10q23 23 10 54q-4 9 -10 16z" glyph-name="Aring" unicode="Å"/>
<glyph d="M488 700h367v-43h-323v-274h288v-43h-288v-297h323v-43h-368v219h-269l-151 -219h-52zM487 262v365l-20 -34l-221 -331h241z" glyph-name="AE" horiz-adv-x="903" unicode="Æ"/>
<glyph d="M386 713q174 0 259 -120q26 -37 41 -83h-52q-37 108 -146 145q-47 16 -102 16q-128 -1 -212 -92q-84 -92 -84 -229q1 -139 84 -230q84 -91 212 -91q147 0 218 101q19 28 30 60h52q-44 -137 -177 -184q-52 -17 -112 -19l-13 -55q4 1 17 1q58 0 77 -46q6 -16 6 -34 q0 -52 -50 -74q-21 -9 -45 -9q-63 1 -94 40l26 28q26 -30 67 -30q45 0 56 32q2 6 2 13q0 34 -33 42q-8 2 -15 2q-20 0 -39 -6l-21 6l23 91q-140 10 -229 110q-88 102 -88 252q1 156 96 259q99 104 246 104z" glyph-name="Ccedilla" horiz-adv-x="719" unicode="Ç"/>
<glyph d="M85 700h368v-43h-323v-274h288v-43h-288v-297h323v-43h-368v700zM127 828h69l116 -98h-65z" glyph-name="Egrave" horiz-adv-x="501" unicode="È"/>
<glyph d="M85 700h368v-43h-323v-274h288v-43h-288v-297h323v-43h-368v700zM351 828h69l-120 -98h-65z" glyph-name="Eacute" horiz-adv-x="501" unicode="É"/>
<glyph d="M257 828h38l132 -98h-70l-82 58l-81 -58h-70zM85 700h368v-43h-323v-274h288v-43h-288v-297h323v-43h-368v700z" glyph-name="Ecircumflex" horiz-adv-x="501" unicode="Ê"/>
<glyph d="M85 700h368v-43h-323v-274h288v-43h-288v-297h323v-43h-368v700zM163 800q21 23 48 3q24 -18 16 -42q-4 -9 -10 -15q-21 -23 -48 -3q-24 18 -16 42q4 9 10 15zM333 800q21 23 48 3q24 -18 16 -42q-4 -9 -10 -15q-21 -23 -48 -3q-24 18 -16 42q4 9 10 15z" glyph-name="Edieresis" horiz-adv-x="501" unicode="Ë"/>
<glyph d="M-41 828h69l116 -98h-65zM85 700h45v-700h-45v700z" glyph-name="Igrave" horiz-adv-x="215" unicode="Ì"/>
<glyph d="M183 828h69l-120 -98h-65zM85 700h45v-700h-45v700z" glyph-name="Iacute" horiz-adv-x="215" unicode="Í"/>
<glyph d="M89 828h38l132 -98h-70l-82 58l-81 -58h-70zM85 700h45v-700h-45v700z" glyph-name="Icircumflex" horiz-adv-x="215" unicode="Î"/>
<glyph d="M-5 800q21 23 48 3q24 -18 16 -42q-4 -9 -10 -15q-21 -23 -48 -3q-24 18 -16 42q4 9 10 15zM165 800q21 23 48 3q24 -18 16 -42q-4 -9 -10 -15q-21 -23 -48 -3q-24 18 -16 42q4 9 10 15zM85 700h45v-700h-45v700z" glyph-name="Idieresis" horiz-adv-x="215" unicode="Ï"/>
<glyph d="M94 700h242q159 -1 253 -96q95 -96 95 -254q-1 -161 -94 -255q-96 -95 -254 -95h-242v323h-98v43h98v334zM336 657h-197v-291h163v-43h-163v-280h197q139 1 221 82q83 84 83 225q-1 141 -83 224q-84 83 -221 83z" glyph-name="Eth" horiz-adv-x="734" unicode="Ð"/>
<glyph d="M562 700h45v-700h-42l-408 580l-27 40v-620h-45v700h42l405 -575l30 -43v618zM285 841q42 0 72 -36q23 -27 34 -31q8 -4 17 -4q51 2 52 62h40q0 -85 -64 -101q-14 -3 -28 -3q-42 0 -72 36q-23 27 -34 31q-8 4 -17 4q-51 -2 -52 -62h-40q0 85 64 101q14 3 28 3z" glyph-name="Ntilde" horiz-adv-x="692" unicode="Ñ"/>
<glyph d="M396 713q153 -1 252 -104t99 -258q-1 -157 -99 -260q-100 -104 -252 -104q-152 1 -253 104q-99 104 -99 260q1 156 99 259q99 103 253 103zM396 671q-133 -1 -220 -92q-86 -93 -86 -228q1 -138 86 -230q88 -92 220 -92q132 1 218 92q87 92 87 230q0 137 -87 228 q-87 92 -218 92zM247 838h69l116 -98h-65z" glyph-name="Ograve" horiz-adv-x="791" unicode="Ò"/>
<glyph d="M396 713q153 -1 252 -104t99 -258q-1 -157 -99 -260q-100 -104 -252 -104q-152 1 -253 104q-99 104 -99 260q1 156 99 259q99 103 253 103zM396 671q-133 -1 -220 -92q-86 -93 -86 -228q1 -138 86 -230q88 -92 220 -92q132 1 218 92q87 92 87 230q0 137 -87 228 q-87 92 -218 92zM471 838h69l-120 -98h-65z" glyph-name="Oacute" horiz-adv-x="791" unicode="Ó"/>
<glyph d="M377 838h38l132 -98h-70l-82 58l-81 -58h-70zM396 713q153 -1 252 -104t99 -258q-1 -157 -99 -260q-100 -104 -252 -104q-152 1 -253 104q-99 104 -99 260q1 156 99 259q99 103 253 103zM396 671q-133 -1 -220 -92q-86 -93 -86 -228q1 -138 86 -230q88 -92 220 -92 q132 1 218 92q87 92 87 230q0 137 -87 228q-87 92 -218 92z" glyph-name="Ocircumflex" horiz-adv-x="791" unicode="Ô"/>
<glyph d="M334 851q42 0 72 -36q23 -27 34 -31q8 -4 17 -4q51 2 52 62h40q0 -85 -64 -101q-14 -3 -28 -3q-42 0 -72 36q-23 27 -34 31q-8 4 -17 4q-51 -2 -52 -62h-40q0 85 64 101q14 3 28 3zM396 713q153 -1 252 -104t99 -258q-1 -157 -99 -260q-100 -104 -252 -104 q-152 1 -253 104q-99 104 -99 260q1 156 99 259q99 103 253 103zM396 671q-133 -1 -220 -92q-86 -93 -86 -228q1 -138 86 -230q88 -92 220 -92q132 1 218 92q87 92 87 230q0 137 -87 228q-87 92 -218 92z" glyph-name="Otilde" horiz-adv-x="791" unicode="Õ"/>
<glyph d="M396 713q153 -1 252 -104t99 -258q-1 -157 -99 -260q-100 -104 -252 -104q-152 1 -253 104q-99 104 -99 260q1 156 99 259q99 103 253 103zM396 671q-133 -1 -220 -92q-86 -93 -86 -228q1 -138 86 -230q88 -92 220 -92q132 1 218 92q87 92 87 230q0 137 -87 228 q-87 92 -218 92zM283 810q21 23 48 3q24 -18 16 -42q-4 -9 -10 -15q-21 -23 -48 -3q-24 18 -16 42q4 9 10 15zM453 810q21 23 48 3q24 -18 16 -42q-4 -9 -10 -15q-21 -23 -48 -3q-24 18 -16 42q4 9 10 15z" glyph-name="Odieresis" horiz-adv-x="791" unicode="Ö"/>
<glyph d="M200 380l141 140l31 -31l-140 -141l140 -140l-30 -29l-140 140l-141 -141l-31 31l141 141l-140 140l29 30z" glyph-name="multiply" horiz-adv-x="402" unicode="×"/>
<glyph d="M396 713q81 0 151 -32l40 75l39 -19l-41 -77q118 -73 151 -215q11 -46 11 -94q-1 -157 -99 -260q-100 -104 -252 -104q-82 0 -154 33l-42 -80l-39 19l43 81q-117 75 -150 217q-10 46 -10 94q1 156 99 259q99 103 253 103zM701 351q0 143 -94 236q-21 20 -43 35l-301 -564 q62 -29 133 -29q132 1 218 92q87 92 87 230zM396 671q-133 -1 -220 -92q-86 -93 -86 -228q0 -146 95 -239q19 -19 40 -33l301 564q-61 28 -130 28z" glyph-name="Oslash" horiz-adv-x="791" unicode="Ø"/>
<glyph d="M561 700h45v-428q0 -209 -150 -266q-51 -19 -115 -19q-189 0 -244 153q-21 57 -21 132v428h45v-428q2 -242 220 -243q188 0 216 180q4 30 4 63v428zM193 828h69l116 -98h-65z" glyph-name="Ugrave" horiz-adv-x="682" unicode="Ù"/>
<glyph d="M561 700h45v-428q0 -209 -150 -266q-51 -19 -115 -19q-189 0 -244 153q-21 57 -21 132v428h45v-428q2 -242 220 -243q188 0 216 180q4 30 4 63v428zM417 828h69l-120 -98h-65z" glyph-name="Uacute" horiz-adv-x="682" unicode="Ú"/>
<glyph d="M323 828h38l132 -98h-70l-82 58l-81 -58h-70zM561 700h45v-428q0 -209 -150 -266q-51 -19 -115 -19q-189 0 -244 153q-21 57 -21 132v428h45v-428q2 -242 220 -243q188 0 216 180q4 30 4 63v428z" glyph-name="Ucircumflex" horiz-adv-x="682" unicode="Û"/>
<glyph d="M561 700h45v-428q0 -209 -150 -266q-51 -19 -115 -19q-189 0 -244 153q-21 57 -21 132v428h45v-428q2 -242 220 -243q188 0 216 180q4 30 4 63v428zM229 800q21 23 48 3q24 -18 16 -42q-4 -9 -10 -15q-21 -23 -48 -3q-24 18 -16 42q4 9 10 15zM399 800q21 23 48 3 q24 -18 16 -42q-4 -9 -10 -15q-21 -23 -48 -3q-24 18 -16 42q4 9 10 15z" glyph-name="Udieresis" horiz-adv-x="682" unicode="Ü"/>
<glyph d="M588 700h54l-289 -430v-270h-45v270l-289 430h54l228 -343l29 -47l29 47zM406 828h69l-120 -98h-65z" glyph-name="Yacute" unicode="Ý"/>
<glyph d="M85 700h45v-119h154q129 0 182 -86q26 -44 26 -102q0 -115 -95 -162q-48 -23 -113 -23h-154v-208h-45v700zM284 538h-154v-287h154q108 0 148 72q16 31 16 70q0 90 -77 127q-38 18 -87 18z" glyph-name="Thorn" horiz-adv-x="537" unicode="Þ"/>
<glyph d="M262 730v-43q-98 0 -121 -76q-8 -28 -8 -66v-45h334v-35l-183 -261q108 -5 169 -66q61 -62 61 -144q0 -136 -107 -188q-54 -26 -127 -26q-37 0 -80 8l7 44q55 -11 72 -11q158 0 186 121q6 24 6 52q0 100 -87 144q-48 24 -113 24h-47v26l190 271h-281v-459h-43v545 q0 172 150 184q11 1 22 1z" glyph-name="germandbls" horiz-adv-x="528" unicode="ß"/>
<glyph d="M231 511q129 0 158 -113q7 -29 7 -63v-335h-44v76q-39 -65 -120 -82q-23 -5 -45 -5q-86 0 -121 64q-16 29 -16 64q2 110 132 140l170 37v41q0 135 -120 135q-91 0 -116 -72q-8 -22 -8 -49h-45q0 88 68 134q43 28 100 28zM352 192v62l-162 -37q-85 -21 -94 -82 q-1 -9 -1 -18q0 -66 59 -83q16 -4 33 -4q79 1 128 58q37 47 37 104zM80 732h53l132 -158h-53z" glyph-name="agrave" horiz-adv-x="471" unicode="à"/>
<glyph d="M231 511q129 0 158 -113q7 -29 7 -63v-335h-44v76q-39 -65 -120 -82q-23 -5 -45 -5q-86 0 -121 64q-16 29 -16 64q2 110 132 140l170 37v41q0 135 -120 135q-91 0 -116 -72q-8 -22 -8 -49h-45q0 88 68 134q43 28 100 28zM352 192v62l-162 -37q-85 -21 -94 -82 q-1 -9 -1 -18q0 -66 59 -83q16 -4 33 -4q79 1 128 58q37 47 37 104zM336 732h53l-132 -158h-53z" glyph-name="aacute" horiz-adv-x="471" unicode="á"/>
<glyph d="M231 511q129 0 158 -113q7 -29 7 -63v-335h-44v76q-39 -65 -120 -82q-23 -5 -45 -5q-86 0 -121 64q-16 29 -16 64q2 110 132 140l170 37v41q0 135 -120 135q-91 0 -116 -72q-8 -22 -8 -49h-45q0 88 68 134q43 28 100 28zM352 192v62l-162 -37q-85 -21 -94 -82 q-1 -9 -1 -18q0 -66 59 -83q16 -4 33 -4q79 1 128 58q37 47 37 104zM228 732h16l133 -158h-53l-88 105l-88 -105h-53z" glyph-name="acircumflex" horiz-adv-x="471" unicode="â"/>
<glyph d="M231 511q129 0 158 -113q7 -29 7 -63v-335h-44v76q-39 -65 -120 -82q-23 -5 -45 -5q-86 0 -121 64q-16 29 -16 64q2 110 132 140l170 37v41q0 135 -120 135q-91 0 -116 -72q-8 -22 -8 -49h-45q0 88 68 134q43 28 100 28zM352 192v62l-162 -37q-85 -21 -94 -82 q-1 -9 -1 -18q0 -66 59 -83q16 -4 33 -4q79 1 128 58q37 47 37 104zM179 692q41 0 72 -40q22 -30 32 -36q9 -5 19 -5q51 2 52 72h40q0 -92 -64 -110q-14 -4 -28 -4q-41 0 -72 40q-22 30 -32 36q-9 5 -19 5q-51 -2 -52 -72h-40q0 92 64 110q14 4 28 4z" glyph-name="atilde" horiz-adv-x="471" unicode="ã"/>
<glyph d="M231 511q129 0 158 -113q7 -29 7 -63v-335h-44v76q-39 -65 -120 -82q-23 -5 -45 -5q-86 0 -121 64q-16 29 -16 64q2 110 132 140l170 37v41q0 135 -120 135q-91 0 -116 -72q-8 -22 -8 -49h-45q0 88 68 134q43 28 100 28zM352 192v62l-162 -37q-85 -21 -94 -82 q-1 -9 -1 -18q0 -66 59 -83q16 -4 33 -4q79 1 128 58q37 47 37 104zM124 655q21 23 48 3q24 -18 16 -42q-4 -9 -10 -15q-21 -23 -48 -3q-24 18 -16 42q4 9 10 15zM294 655q21 23 48 3q24 -18 16 -42q-4 -9 -10 -15q-21 -23 -48 -3q-24 18 -16 42q4 9 10 15z" glyph-name="adieresis" horiz-adv-x="471" unicode="ä"/>
<glyph d="M231 511q129 0 158 -113q7 -29 7 -63v-335h-44v76q-39 -65 -120 -82q-23 -5 -45 -5q-86 0 -121 64q-16 29 -16 64q2 110 132 140l170 37v41q0 135 -120 135q-91 0 -116 -72q-8 -22 -8 -49h-45q0 88 68 134q43 28 100 28zM352 192v62l-162 -37q-85 -21 -94 -82 q-1 -9 -1 -18q0 -66 59 -83q16 -4 33 -4q79 1 128 58q37 47 37 104zM240 752q63 0 89 -51q10 -21 10 -46q0 -58 -48 -84q-24 -12 -51 -12q-60 0 -87 48q-12 22 -12 48q0 59 49 85q23 12 50 12zM240 716q-40 0 -55 -36q-5 -12 -5 -25q0 -39 34 -55q13 -5 26 -5q40 0 55 35 q5 13 5 25q0 42 -36 57q-12 4 -24 4z" glyph-name="aring" horiz-adv-x="471" unicode="å"/>
<glyph d="M580 511q136 0 194 -103q34 -60 34 -144v-30h-412q4 -92 56 -148q55 -56 133 -56q117 0 162 88q4 9 7 17h47q-34 -109 -146 -138q-33 -8 -70 -8q-118 0 -184 93q-13 18 -22 38q-47 -107 -147 -127q-20 -4 -39 -4q-100 0 -132 71q-11 26 -11 57q0 98 101 131q16 5 33 9 l168 36v42q0 135 -120 135q-91 0 -116 -72q-8 -22 -8 -49h-45q0 94 72 138q42 24 97 24q125 -1 156 -113q66 112 192 113zM580 470q-79 -1 -129 -55q-50 -56 -55 -141h368q0 128 -90 175q-41 21 -94 21zM352 192v61l-156 -34q-85 -20 -98 -74q-3 -14 -3 -28q2 -86 98 -87 q76 1 122 58q37 47 37 104z" glyph-name="ae" horiz-adv-x="861" unicode="æ"/>
<glyph d="M273 511q120 0 183 -84q20 -28 31 -62h-46q-27 73 -108 97q-29 8 -60 8q-82 -1 -137 -63q-54 -62 -54 -157q1 -94 54 -157q56 -63 137 -63q101 0 149 70q11 17 18 35h47q-31 -98 -128 -132q-34 -11 -72 -13l-14 -58q4 1 17 1q58 0 77 -46q6 -16 6 -34q0 -52 -50 -74 q-21 -9 -45 -9q-63 1 -94 40l26 28q26 -30 67 -30q45 0 56 32q2 6 2 13q0 34 -33 42q-8 2 -15 2q-19 0 -39 -6l-21 6l24 93q-94 8 -154 81q-59 75 -59 179q0 112 66 186q68 75 169 75z" glyph-name="ccedilla" horiz-adv-x="531" unicode="ç"/>
<glyph d="M266 511q136 0 194 -103q34 -60 34 -144v-30h-412q4 -92 56 -148q55 -56 133 -56q117 0 162 88q4 9 7 17h47q-34 -109 -146 -138q-33 -8 -70 -8q-102 0 -168 72q-65 73 -65 189q1 114 63 187q64 74 165 74zM266 470q-79 -1 -129 -55q-50 -56 -55 -141h368q0 128 -90 175 q-41 21 -94 21zM110 732h53l132 -158h-53z" glyph-name="egrave" horiz-adv-x="547" unicode="è"/>
<glyph d="M266 511q136 0 194 -103q34 -60 34 -144v-30h-412q4 -92 56 -148q55 -56 133 -56q117 0 162 88q4 9 7 17h47q-34 -109 -146 -138q-33 -8 -70 -8q-102 0 -168 72q-65 73 -65 189q1 114 63 187q64 74 165 74zM266 470q-79 -1 -129 -55q-50 -56 -55 -141h368q0 128 -90 175 q-41 21 -94 21zM366 732h53l-132 -158h-53z" glyph-name="eacute" horiz-adv-x="547" unicode="é"/>
<glyph d="M266 511q136 0 194 -103q34 -60 34 -144v-30h-412q4 -92 56 -148q55 -56 133 -56q117 0 162 88q4 9 7 17h47q-34 -109 -146 -138q-33 -8 -70 -8q-102 0 -168 72q-65 73 -65 189q1 114 63 187q64 74 165 74zM266 470q-79 -1 -129 -55q-50 -56 -55 -141h368q0 128 -90 175 q-41 21 -94 21zM258 732h16l133 -158h-53l-88 105l-88 -105h-53z" glyph-name="ecircumflex" horiz-adv-x="547" unicode="ê"/>
<glyph d="M266 511q136 0 194 -103q34 -60 34 -144v-30h-412q4 -92 56 -148q55 -56 133 -56q117 0 162 88q4 9 7 17h47q-34 -109 -146 -138q-33 -8 -70 -8q-102 0 -168 72q-65 73 -65 189q1 114 63 187q64 74 165 74zM266 470q-79 -1 -129 -55q-50 -56 -55 -141h368q0 128 -90 175 q-41 21 -94 21zM161 655q21 23 48 3q24 -18 16 -42q-4 -9 -10 -15q-21 -23 -48 -3q-24 18 -16 42q4 9 10 15zM331 655q21 23 48 3q24 -18 16 -42q-4 -9 -10 -15q-21 -23 -48 -3q-24 18 -16 42q4 9 10 15z" glyph-name="edieresis" horiz-adv-x="547" unicode="ë"/>
<glyph d="M-47 732h53l132 -158h-53zM88 500h43v-500h-43v500z" glyph-name="igrave" horiz-adv-x="219" unicode="ì"/>
<glyph d="M209 732h53l-132 -158h-53zM88 500h43v-500h-43v500z" glyph-name="iacute" horiz-adv-x="219" unicode="í"/>
<glyph d="M101 732h16l133 -158h-53l-88 105l-88 -105h-53zM88 500h43v-500h-43v500z" glyph-name="icircumflex" horiz-adv-x="219" unicode="î"/>
<glyph d="M-3 655q21 23 48 3q24 -18 16 -42q-4 -9 -10 -15q-21 -23 -48 -3q-24 18 -16 42q4 9 10 15zM167 655q21 23 48 3q24 -18 16 -42q-4 -9 -10 -15q-21 -23 -48 -3q-24 18 -16 42q4 9 10 15zM88 500h43v-500h-43v500z" glyph-name="idieresis" horiz-adv-x="219" unicode="ï"/>
<glyph d="M253 619h146v-43h-110l143 -167q62 -72 69 -150q1 -15 1 -30q-1 -105 -64 -172q-64 -68 -166 -68q-102 1 -167 68q-64 68 -64 172q0 103 63 171q66 68 168 68q28 0 57 -7l-97 115h-149v43h112l-94 111h57zM458 229q-1 80 -56 148q-54 50 -130 50q-83 -1 -136 -56 q-51 -56 -51 -142q1 -86 51 -143q54 -56 136 -56q83 1 134 56q52 57 52 143z" glyph-name="eth" horiz-adv-x="543" unicode="ð"/>
<glyph d="M207 692q41 0 72 -40q22 -30 32 -36q9 -5 19 -5q51 2 52 72h40q0 -92 -64 -110q-14 -4 -28 -4q-41 0 -72 40q-22 30 -32 36q-9 5 -19 5q-51 -2 -52 -72h-40q0 92 64 110q14 4 28 4zM273 511q105 0 145 -91q19 -43 19 -98v-322h-43v323q0 112 -78 140q-21 7 -45 7 q-79 0 -120 -73q-25 -47 -25 -110v-287h-43v500h43v-81q13 34 53 63q43 29 94 29z" glyph-name="ntilde" horiz-adv-x="512" unicode="ñ"/>
<glyph d="M284 511q108 -1 176 -74q68 -75 68 -187q-1 -113 -68 -187q-69 -74 -176 -74q-110 1 -178 74q-68 75 -68 187q1 113 68 187q69 74 178 74zM284 470q-91 -1 -147 -62q-55 -62 -55 -158q1 -96 55 -158q57 -62 147 -62q89 1 145 62q55 63 55 158q-1 97 -55 158 q-57 62 -145 62zM127 732h53l132 -158h-53z" glyph-name="ograve" horiz-adv-x="566" unicode="ò"/>
<glyph d="M284 511q108 -1 176 -74q68 -75 68 -187q-1 -113 -68 -187q-69 -74 -176 -74q-110 1 -178 74q-68 75 -68 187q1 113 68 187q69 74 178 74zM284 470q-91 -1 -147 -62q-55 -62 -55 -158q1 -96 55 -158q57 -62 147 -62q89 1 145 62q55 63 55 158q-1 97 -55 158 q-57 62 -145 62zM383 732h53l-132 -158h-53z" glyph-name="oacute" horiz-adv-x="566" unicode="ó"/>
<glyph d="M275 732h16l133 -158h-53l-88 105l-88 -105h-53zM284 511q108 -1 176 -74q68 -75 68 -187q-1 -113 -68 -187q-69 -74 -176 -74q-110 1 -178 74q-68 75 -68 187q1 113 68 187q69 74 178 74zM284 470q-91 -1 -147 -62q-55 -62 -55 -158q1 -96 55 -158q57 -62 147 -62 q89 1 145 62q55 63 55 158q-1 97 -55 158q-57 62 -145 62z" glyph-name="ocircumflex" horiz-adv-x="566" unicode="ô"/>
<glyph d="M222 692q41 0 72 -40q22 -30 32 -36q9 -5 19 -5q51 2 52 72h40q0 -92 -64 -110q-14 -4 -28 -4q-41 0 -72 40q-22 30 -32 36q-9 5 -19 5q-51 -2 -52 -72h-40q0 92 64 110q14 4 28 4zM284 511q108 -1 176 -74q68 -75 68 -187q-1 -113 -68 -187q-69 -74 -176 -74 q-110 1 -178 74q-68 75 -68 187q1 113 68 187q69 74 178 74zM284 470q-91 -1 -147 -62q-55 -62 -55 -158q1 -96 55 -158q57 -62 147 -62q89 1 145 62q55 63 55 158q-1 97 -55 158q-57 62 -145 62z" glyph-name="otilde" horiz-adv-x="566" unicode="õ"/>
<glyph d="M284 511q108 -1 176 -74q68 -75 68 -187q-1 -113 -68 -187q-69 -74 -176 -74q-110 1 -178 74q-68 75 -68 187q1 113 68 187q69 74 178 74zM284 470q-91 -1 -147 -62q-55 -62 -55 -158q1 -96 55 -158q57 -62 147 -62q89 1 145 62q55 63 55 158q-1 97 -55 158 q-57 62 -145 62zM171 655q21 23 48 3q24 -18 16 -42q-4 -9 -10 -15q-21 -23 -48 -3q-24 18 -16 42q4 9 10 15zM341 655q21 23 48 3q24 -18 16 -42q-4 -9 -10 -15q-21 -23 -48 -3q-24 18 -16 42q4 9 10 15z" glyph-name="odieresis" horiz-adv-x="566" unicode="ö"/>
<glyph d="M270 523q2 -30 -29 -38q-31 -7 -46 15q-7 10 -6 23q-2 30 29 38q29 8 45 -13q7 -11 7 -25zM270 176q2 -30 -29 -38q-31 -7 -46 15q-7 10 -6 23q-2 30 29 38q29 8 45 -13q7 -11 7 -25zM30 371h412v-42h-412v42z" glyph-name="divide" horiz-adv-x="472" unicode="÷"/>
<glyph d="M284 511q56 0 104 -22l38 71l36 -19l-39 -72q94 -66 104 -193q1 -13 1 -26q-1 -113 -68 -187q-69 -74 -176 -74q-56 0 -105 21l-38 -70l-36 19l38 71q-91 61 -103 186q-2 17 -2 34q1 113 68 187q69 74 178 74zM284 470q-91 -1 -147 -62q-55 -62 -55 -158q1 -121 81 -182 l205 384q-38 18 -84 18zM484 250q-1 120 -81 181l-205 -384q41 -17 86 -17q89 1 145 62q55 63 55 158z" glyph-name="oslash" horiz-adv-x="566" unicode="ø"/>
<glyph d="M381 500h43v-500h-43v81q-13 -35 -52 -63q-42 -29 -92 -29q-106 0 -145 94q-17 42 -17 95v322h43v-323q0 -116 80 -141q19 -6 41 -6q79 0 118 75q24 46 24 108v287zM96 732h53l132 -158h-53z" glyph-name="ugrave" horiz-adv-x="507" unicode="ù"/>
<glyph d="M381 500h43v-500h-43v81q-13 -35 -52 -63q-42 -29 -92 -29q-106 0 -145 94q-17 42 -17 95v322h43v-323q0 -116 80 -141q19 -6 41 -6q79 0 118 75q24 46 24 108v287zM352 732h53l-132 -158h-53z" glyph-name="uacute" horiz-adv-x="507" unicode="ú"/>
<glyph d="M244 732h16l133 -158h-53l-88 105l-88 -105h-53zM381 500h43v-500h-43v81q-13 -35 -52 -63q-42 -29 -92 -29q-106 0 -145 94q-17 42 -17 95v322h43v-323q0 -116 80 -141q19 -6 41 -6q79 0 118 75q24 46 24 108v287z" glyph-name="ucircumflex" horiz-adv-x="507" unicode="û"/>
<glyph d="M381 500h43v-500h-43v81q-13 -35 -52 -63q-42 -29 -92 -29q-106 0 -145 94q-17 42 -17 95v322h43v-323q0 -116 80 -141q19 -6 41 -6q79 0 118 75q24 46 24 108v287zM140 655q21 23 48 3q24 -18 16 -42q-4 -9 -10 -15q-21 -23 -48 -3q-24 18 -16 42q4 9 10 15zM310 655 q21 23 48 3q24 -18 16 -42q-4 -9 -10 -15q-21 -23 -48 -3q-24 18 -16 42q4 9 10 15z" glyph-name="udieresis" horiz-adv-x="507" unicode="ü"/>
<glyph d="M420 500h46l-289 -715h-47l91 223l-199 492h46l165 -411l11 -33l11 33zM344 732h53l-132 -158h-53z" glyph-name="yacute" horiz-adv-x="488" unicode="ý"/>
<glyph d="M95 730h43v-325q17 37 69 71q54 35 117 35q109 -1 170 -73q63 -74 63 -188q-1 -115 -64 -188t-171 -73q-68 0 -117 33q-51 35 -67 75v-312h-43v945zM324 470q-78 -1 -132 -53q-54 -53 -54 -145v-35q1 -96 53 -152q54 -55 131 -55q85 1 138 62q53 63 53 158q-1 97 -51 158 q-52 62 -138 62z" glyph-name="thorn" horiz-adv-x="595" unicode="þ"/>
</font>
</defs>
</svg>
