<?xml version="1.0" encoding="UTF-8"?>
<!DOCTYPE svg  PUBLIC '-//W3C//DTD SVG 1.1//EN'  'http://www.w3.org/Graphics/SVG/1.1/DTD/svg11.dtd'>
<svg version="1.1" xmlns="http://www.w3.org/2000/svg">
<defs>
<font id="Larsseit" horiz-adv-x="244">
<font-face font-family="Larsseit" font-weight="400" ascent="766" bbox="-59 -230 969 912" cap-height="700" descent="-234" panose-1="0 0 0 0 0 0 0 0 0 0" underline-position="-100" underline-thickness="50" unicode-range="U+0020-00FE" units-per-em="1000" x-height="504"/>
<missing-glyph/>
<glyph glyph-name="space" horiz-adv-x="206" unicode=" "/>
<glyph d="M79 700h86v-500h-86v500zM186 51q0 -40 -36 -56q-14 -6 -28 -6q-40 0 -57 34q-6 14 -6 28q0 41 36 57q13 5 27 5q42 0 58 -36q6 -13 6 -26z" glyph-name="exclam" unicode="!"/>
<glyph d="M39 723h84l-20 -207h-57zM195 723h84l-20 -207h-57z" glyph-name="quotedbl" horiz-adv-x="312" unicode='"'/>
<glyph d="M475 263h121v-80h-135l-32 -183h-86l32 183h-155l-32 -183h-86l32 183h-119v80h133l34 196h-121v80h135l29 161h86l-29 -161h155l29 161h86l-29 -161h119v-80h-133zM423 459h-155l-34 -196h155z" glyph-name="numbersign" horiz-adv-x="657" unicode="#"/>
<glyph d="M243 801h69v-91q124 -19 155 -131q8 -30 9 -64h-92q-3 86 -72 109v-233q100 -38 143 -83q43 -44 43 -118q0 -119 -92 -172q-41 -24 -94 -29v-90h-69v90q-131 14 -176 123q-17 43 -18 94h92q3 -114 102 -134v247q-119 45 -154 109q-20 38 -20 90q0 106 78 160q42 27 96 33 v90zM406 184q0 58 -64 93q-14 8 -30 15v-222q74 14 90 81q4 16 4 33zM161 525q0 -55 45 -85q15 -10 37 -20v209q-67 -12 -80 -78q-2 -13 -2 -26z" glyph-name="dollar" horiz-adv-x="544" unicode="$"/>
<glyph d="M584 700h95l-420 -700h-95zM198 713q72 -1 120 -50q48 -50 48 -124q-1 -75 -48 -124q-48 -49 -120 -49q-74 1 -121 49q-47 51 -47 124q1 74 47 124q49 50 121 50zM198 643q-58 0 -84 -51q-12 -25 -12 -53q0 -63 48 -90q22 -13 48 -13q57 0 82 51q12 24 12 52q0 64 -47 92 q-22 12 -47 12zM646 334q71 -1 119 -50q49 -50 49 -125q-1 -75 -48 -124q-48 -48 -120 -48q-73 1 -121 48q-48 50 -48 124q1 76 48 125q49 50 121 50zM646 264q-58 0 -84 -51q-12 -25 -12 -53q0 -63 48 -90q22 -13 48 -13q57 0 82 51q12 24 12 52q0 64 -47 92q-22 12 -47 12 z" glyph-name="percent" horiz-adv-x="843" unicode="%"/>
<glyph d="M274 713q103 0 150 -71q25 -39 25 -90q-1 -72 -45 -115q-21 -21 -41 -36q-13 -9 -52 -33l-2 -1l147 -162q7 31 8 45q8 60 -6 114l84 7q15 -66 8 -131q-6 -56 -30 -105l123 -135h-117l-57 63q-78 -76 -196 -76q-146 0 -206 89q-31 46 -31 108q0 92 82 156q23 18 53 36l9 5 l-17 19q-67 73 -67 150q0 70 48 117q48 46 130 46zM276 65q88 1 138 58l-180 199l-4 -2q-77 -46 -95 -91q-7 -20 -7 -43q0 -92 92 -115q26 -6 56 -6zM186 550q1 -48 54 -107l15 -17l4 2q57 34 75 53q25 29 25 67q0 60 -48 80q-17 7 -36 7q-57 0 -80 -45q-9 -19 -9 -40z" glyph-name="ampersand" horiz-adv-x="636" unicode="&amp;"/>
<glyph d="M39 723h84l-20 -207h-57z" glyph-name="quotesingle" horiz-adv-x="156" unicode="'"/>
<glyph d="M201 736l62 -43q-69 -87 -101 -174q-31 -85 -31 -198q0 -114 31 -198q33 -88 101 -174l-62 -43q-130 161 -149 340q-4 37 -4 75q0 199 114 362q18 27 39 53z" glyph-name="parenleft" horiz-adv-x="274" unicode="("/>
<glyph d="M11 693l62 43q125 -159 147 -325q6 -44 6 -90q0 -190 -107 -352q-21 -31 -46 -63l-62 43q69 87 101 174q31 85 31 198q0 114 -31 198q-33 88 -101 174z" glyph-name="parenright" horiz-adv-x="274" unicode=")"/>
<glyph d="M143 738h66l-2 -125l114 41l22 -62l-117 -37l76 -100l-53 -39l-72 101l-71 -101l-53 38l74 99l-117 37l20 63l115 -40z" glyph-name="asterisk" horiz-adv-x="353" unicode="*"/>
<glyph d="M196 556h80v-167h166v-78h-166v-167h-80v167h-166v78h166v167z" glyph-name="plus" horiz-adv-x="472" unicode="+"/>
<glyph d="M99 110q42 0 56 -39q4 -12 4 -26q0 -83 -60 -161q-7 -8 -13 -15l-28 11q27 48 35 113q-41 4 -52 41q-2 9 -2 17q0 37 34 53q13 6 26 6z" glyph-name="comma" horiz-adv-x="198" unicode=","/>
<glyph d="M25 298h315v-77h-315v77z" glyph-name="hyphen" horiz-adv-x="365" unicode="-"/>
<glyph d="M164 51q0 -39 -35 -56q-14 -6 -28 -6q-41 0 -57 36q-6 13 -6 26q0 41 36 57q13 5 27 5q42 0 57 -35q6 -13 6 -27z" glyph-name="period" horiz-adv-x="202" unicode="."/>
<glyph d="M300 700h85l-295 -700h-85z" glyph-name="slash" horiz-adv-x="390" unicode="/"/>
<glyph d="M514 351q0 -168 -62 -266q-63 -97 -173 -98q-112 1 -174 98q-61 98 -61 266t61 265q62 96 174 97q111 -1 173 -98q62 -99 62 -264zM279 628q-93 0 -127 -129q-16 -62 -16 -148q0 -214 90 -265q24 -14 53 -14q92 0 126 129q16 63 16 150q0 208 -87 262q-25 15 -55 15z" glyph-name="zero" horiz-adv-x="557" unicode="0"/>
<glyph d="M196 700h70v-700h-91v536h-147v78q109 0 143 36q17 19 25 50z" glyph-name="one" horiz-adv-x="342" unicode="1"/>
<glyph d="M247 713q132 0 177 -100q18 -41 18 -94q-1 -97 -85 -205l-179 -229h275v-85h-400v67l225 284q60 77 69 128q3 18 3 37q-2 111 -104 112q-88 0 -105 -88q-4 -20 -4 -42h-91q0 129 88 185q48 30 113 30z" glyph-name="two" horiz-adv-x="487" unicode="2"/>
<glyph d="M458 516q0 -97 -72 -141q-13 -7 -26 -12q73 -18 105 -90q17 -38 17 -83q0 -90 -60 -147q-61 -56 -157 -56q-138 0 -193 97q-28 50 -28 117h90q1 -105 93 -125q19 -4 40 -4q77 0 109 60q14 27 14 61q0 101 -106 123q-27 6 -59 6h-23v80h22q120 0 138 77q4 16 4 35 q0 91 -71 110q-16 4 -34 4q-78 0 -103 -70q-8 -25 -8 -56h-91q0 126 87 181q49 30 114 30q92 -1 145 -56q53 -57 53 -141z" glyph-name="three" horiz-adv-x="532" unicode="3"/>
<glyph d="M305 700h108v-474h98v-83h-98v-143h-91v143h-293v75zM323 225v345l-22 -43l-172 -302h194z" glyph-name="four" horiz-adv-x="541" unicode="4"/>
<glyph d="M82 700h377v-85h-285v-203q45 26 114 26q94 -1 151 -59q57 -59 57 -159q0 -104 -60 -168.5t-160 -64.5q-142 0 -192 101q-22 44 -22 103h91q1 -102 94 -117q15 -2 30 -2q84 0 114 75q13 31 13 70q0 95 -72 125q-26 11 -57 11q-64 -1 -112 -32h-81v379z" glyph-name="five" horiz-adv-x="533" unicode="5"/>
<glyph d="M289 713q84 -1 140 -53q55 -53 60 -140h-92q-11 108 -111 108q-115 0 -138 -174q-5 -42 -6 -92q31 49 102 65q22 5 44 5q99 -1 158 -62q58 -62 58 -157q-1 -99 -60 -163q-60 -63 -159 -63q-104 1 -165 70q-70 80 -70 275q0 337 184 376q26 5 55 5zM283 347 q-55 -1 -94 -39t-39 -95q1 -56 37 -99q38 -43 96 -43q74 0 109 63q19 35 19 77q0 77 -57 115q-31 21 -71 21z" glyph-name="six" horiz-adv-x="546" unicode="6"/>
<glyph d="M38 700h417v-74l-281 -626h-99l276 613h-313v87z" glyph-name="seven" horiz-adv-x="487" unicode="7"/>
<glyph d="M474 516q0 -91 -64 -142q-11 -8 -22 -14q81 -36 102 -119q6 -24 6 -49q-1 -89 -64 -147q-65 -58 -159 -58q-96 1 -160 58q-64 59 -64 147q0 95 69 147q19 13 39 21q-60 32 -79 105q-6 25 -6 51q1 85 55 140q56 57 146 57q90 -1 145 -57q56 -57 56 -140zM273 319 q-74 0 -111 -54q-21 -31 -21 -71q1 -55 38 -90q40 -33 94 -33q55 0 93 33q38 36 38 90q0 56 -39 90q-39 35 -92 35zM162 514q0 -71 56 -100q25 -12 55 -12q70 0 98 56q13 25 13 56q0 73 -56 102q-25 13 -55 13q-68 0 -98 -56q-13 -27 -13 -59z" glyph-name="eight" horiz-adv-x="546" unicode="8"/>
<glyph d="M256 -13q-86 1 -141 52q-54 52 -59 141h92q10 -108 111 -108q116 0 138 178q5 40 6 87q-36 -52 -109 -66q-19 -3 -37 -3q-99 1 -158 62q-58 62 -58 157q0 99 60 162q60 64 159 64q104 -1 165 -70q70 -80 70 -275q0 -337 -184 -376q-26 -5 -55 -5zM262 353q55 1 94 38 q39 39 39 96q-1 56 -37 99q-38 43 -96 43q-74 0 -109 -63q-19 -35 -19 -77q0 -77 57 -115q31 -21 71 -21z" glyph-name="nine" horiz-adv-x="546" unicode="9"/>
<glyph d="M101 515q40 0 57 -35q6 -13 6 -28q0 -39 -35 -56q-14 -6 -28 -6q-41 0 -57 36q-6 13 -6 26q0 41 36 57q13 6 27 6zM164 51q0 -39 -35 -56q-14 -6 -28 -6q-41 0 -57 36q-6 13 -6 26q0 41 36 57q13 5 27 5q42 0 57 -35q6 -13 6 -27z" glyph-name="colon" horiz-adv-x="202" unicode=":"/>
<glyph d="M101 515q40 0 57 -35q6 -13 6 -28q0 -39 -35 -56q-14 -6 -28 -6q-41 0 -57 36q-6 13 -6 26q0 41 36 57q13 6 27 6zM101 110q39 0 54 -36q6 -14 6 -29q0 -83 -60 -161q-7 -8 -13 -15l-28 11q27 48 35 113q-41 4 -52 39q-3 10 -3 19q0 38 34 53q13 6 27 6z" glyph-name="semicolon" horiz-adv-x="202" unicode=";"/>
<glyph d="M158 446h87l-151 -196l151 -195h-87l-145 187v17z" glyph-name="less" horiz-adv-x="258" unicode="&lt;"/>
<glyph d="M30 490h412v-77h-412v77zM30 285h412v-77h-412v77z" glyph-name="equal" horiz-adv-x="472" unicode="="/>
<glyph d="M13 446h87l145 -187v-17l-145 -187h-87l151 195z" glyph-name="greater" horiz-adv-x="258" unicode="&gt;"/>
<glyph d="M203 716q84 0 141 -51q58 -51 58 -140q-1 -93 -57 -152q-11 -12 -35 -33q-52 -48 -63 -76q-6 -15 -6 -29v-35h-87v38q1 66 58 117q54 49 62 59q44 50 44 108q0 89 -69 114q-21 7 -45 7q-90 0 -113 -79q-6 -22 -6 -48h-83q2 94 57 147q58 53 144 53zM261 51q0 -39 -35 -56 q-14 -6 -28 -6q-41 0 -57 36q-6 13 -6 26q0 41 36 57q13 5 27 5q42 0 57 -35q6 -13 6 -27z" glyph-name="question" horiz-adv-x="415" unicode="?"/>
<glyph d="M394 372q-72 0 -105 -64q-16 -32 -16 -73q0 -84 59 -119q27 -16 60 -16q70 0 103 55q18 31 18 69v18q0 77 -58 113q-28 17 -61 17zM406 604q163 -1 264 -104q101 -105 101 -264q0 -143 -82 -189q-30 -16 -65 -16q-77 1 -101 63q-46 -64 -140 -64q-83 1 -135 58 q-51 58 -51 147t51 147q54 59 134 59q86 0 126 -60q4 -6 7 -12l4 63h66v-285q2 -55 47 -56q71 2 71 145q-1 133 -82 218q-82 86 -215 86q-136 -1 -219 -86q-82 -86 -82 -218q1 -134 82 -219q84 -86 219 -86q73 0 136 30l21 -62q-72 -32 -157 -32q-166 1 -268 104 q-101 105 -101 265q1 163 101 265q102 103 268 103z" glyph-name="at" horiz-adv-x="808" unicode="@"/>
<glyph d="M358 545l-13 38l-13 -38l-110 -275h247zM299 700h94l281 -700h-100l-74 185h-309l-73 -185h-100z" glyph-name="A" horiz-adv-x="692" unicode="A"/>
<glyph d="M78 700h195q134 0 190 -86q29 -45 29 -104q-1 -94 -75 -143q93 -34 113 -124q5 -21 5 -43q0 -112 -92 -166q-58 -34 -139 -34h-226v700zM304 315h-135v-230h135q97 0 128 66q10 23 10 51q0 81 -79 105q-27 8 -59 8zM273 615h-104v-216h108q82 0 112 57q11 23 11 49 q0 84 -79 104q-23 6 -48 6z" glyph-name="B" horiz-adv-x="571" unicode="B"/>
<glyph d="M386 713q183 0 269 -130q27 -41 42 -91h-101q-51 135 -210 136q-111 -1 -181 -79t-70 -199q1 -120 70 -199q71 -79 182 -79q136 0 195 100q11 19 18 39h98q-47 -166 -203 -210q-50 -14 -108 -14q-153 1 -250 103q-97 104 -97 260q1 157 97 260q98 103 249 103z" glyph-name="C" horiz-adv-x="728" unicode="C"/>
<glyph d="M78 700h252q162 0 258 -96q97 -96 97 -254q-1 -159 -97 -254q-96 -96 -258 -96h-252v700zM330 615h-161v-530h161q152 0 220 107q42 65 42 158q0 158 -109 226q-64 39 -153 39z" glyph-name="D" horiz-adv-x="729" unicode="D"/>
<glyph d="M78 700h385v-85h-294v-212h259v-85h-259v-233h294v-85h-385v700z" glyph-name="E" horiz-adv-x="510" unicode="E"/>
<glyph d="M78 700h377v-85h-286v-221h243v-86h-243v-308h-91v700z" glyph-name="F" horiz-adv-x="481" unicode="F"/>
<glyph d="M386 713q183 0 269 -130q27 -41 42 -91h-101q-51 135 -211 136q-110 -1 -180 -79t-70 -199q1 -120 70 -199q71 -79 183 -79q151 0 201 107q19 42 21 95h-210v85h306v-47q-1 -153 -85 -239q-87 -86 -233 -86q-153 1 -250 103q-98 105 -98 260q1 157 97 260q98 103 249 103 z" glyph-name="G" horiz-adv-x="753" unicode="G"/>
<glyph d="M539 700h91v-700h-91v319h-370v-319h-91v700h91v-295h370v295z" glyph-name="H" horiz-adv-x="708" unicode="H"/>
<glyph d="M78 700h91v-700h-91v700z" glyph-name="I" horiz-adv-x="247" unicode="I"/>
<glyph d="M340 700h91v-499q0 -168 -129 -203q-31 -8 -67 -8q-174 0 -203 170q-4 25 -5 52h91q8 -136 117 -137q89 0 103 96q2 16 2 34v495z" glyph-name="J" horiz-adv-x="500" unicode="J"/>
<glyph d="M476 700h112l-234 -309l297 -391h-111l-247 318l-118 -148v-170h-91v700h91v-396z" glyph-name="K" horiz-adv-x="670" unicode="K"/>
<glyph d="M77 700h91v-615h312v-85h-403v700z" glyph-name="L" horiz-adv-x="503" unicode="L"/>
<glyph d="M698 700h100v-700h-91v521l-19 -52l-214 -469h-73l-213 469l-19 52v-521h-91v700h100l240 -514l19 -45l20 45z" glyph-name="M" horiz-adv-x="875" unicode="M"/>
<glyph d="M543 700h91v-700h-90l-348 502l-27 43v-545h-91v700h89l346 -500l30 -46v546z" glyph-name="N" horiz-adv-x="711" unicode="N"/>
<glyph d="M398 713q156 -1 256 -103q101 -105 101 -259q-1 -157 -101 -261q-101 -103 -256 -103q-157 1 -257 103q-101 105 -101 261q1 155 101 259q101 103 257 103zM398 628q-117 -1 -190 -79t-73 -198q1 -121 73 -200q74 -79 190 -79q115 1 188 79q74 81 74 200q-1 120 -74 198 q-74 79 -188 79z" glyph-name="O" horiz-adv-x="795" unicode="O"/>
<glyph d="M78 700h207q106 -1 167 -60q62 -60 62 -155q-1 -95 -62 -154q-62 -58 -167 -58h-116v-273h-91v700zM285 615h-116v-257h116q91 0 124 66q13 28 13 61q0 85 -70 116q-30 14 -67 14z" glyph-name="P" horiz-adv-x="538" unicode="P"/>
<glyph d="M398 713q156 -1 256 -103q101 -105 101 -259q-1 -178 -124 -282l172 -173h-127l-124 123q-75 -32 -154 -32q-157 1 -257 103q-101 105 -101 261q1 155 101 259q101 103 257 103zM398 628q-117 -1 -190 -79t-73 -198q1 -121 73 -200q74 -79 190 -79q50 0 87 13l-132 130 h128l86 -83q93 80 93 219q-1 120 -74 198q-74 79 -188 79z" glyph-name="Q" horiz-adv-x="792" unicode="Q"/>
<glyph d="M78 700h191q133 0 193 -88q36 -52 36 -123q0 -116 -91 -171q-20 -11 -42 -19l163 -299h-104l-153 284h-102v-284h-91v700zM269 615h-100v-249h100q92 0 124 65q13 26 13 58q0 85 -72 114q-29 12 -65 12z" glyph-name="R" horiz-adv-x="548" unicode="R"/>
<glyph d="M263 713q136 0 184 -101q20 -42 21 -97h-92q-1 81 -66 107q-22 9 -49 9q-81 0 -102 -66q-6 -19 -6 -40q1 -47 29 -73q32 -25 110 -56q109 -41 153 -85q45 -46 45 -121q0 -116 -90 -171q-54 -32 -127 -32q-144 0 -202 102q-28 51 -30 117h92q1 -106 90 -131q24 -7 51 -7 q89 0 115 67q9 23 9 49q0 57 -60 91q-32 19 -87 38q-97 36 -144 80q-46 45 -46 125q1 84 53 140q54 55 149 55z" glyph-name="S" horiz-adv-x="528" unicode="S"/>
<glyph d="M10 700h587v-85h-248v-615h-91v615h-248v85z" glyph-name="T" horiz-adv-x="607" unicode="T"/>
<glyph d="M527 700h91v-423q0 -203 -144 -266q-57 -24 -130 -24q-186 0 -248 143q-27 63 -27 147v423h91v-423q2 -204 184 -205q164 0 181 167q2 19 2 38v423z" glyph-name="U" horiz-adv-x="687" unicode="U"/>
<glyph d="M566 700h98l-282 -700h-83l-283 700h98l212 -529l14 -45l14 45z" glyph-name="V" horiz-adv-x="680" unicode="V"/>
<glyph d="M873 700h96l-223 -700h-90l-151 486l-11 47l-11 -47l-151 -486h-90l-223 700h96l162 -509l12 -50l10 50l156 509h78l156 -509l10 -50l12 50z" glyph-name="W" horiz-adv-x="988" unicode="W"/>
<glyph d="M536 700h108l-242 -343l253 -357h-108l-206 288l-205 -288h-108l252 357l-242 343h109l194 -273z" glyph-name="X" horiz-adv-x="682" unicode="X"/>
<glyph d="M553 700h107l-277 -435v-265h-92v265l-277 435h107l189 -294l26 -47l27 47z" glyph-name="Y" horiz-adv-x="674" unicode="Y"/>
<glyph d="M41 700h501v-73l-387 -542h399v-85h-517v73l389 542h-385v85z" glyph-name="Z" horiz-adv-x="590" unicode="Z"/>
<glyph d="M70 716h192v-79h-109v-635h109v-79h-192v793z" glyph-name="bracketleft" horiz-adv-x="287" unicode="["/>
<glyph d="M5 700h85l295 -700h-85z" glyph-name="backslash" horiz-adv-x="390" unicode="\"/>
<glyph d="M25 716h192v-793h-192v79h109v635h-109v79z" glyph-name="bracketright" horiz-adv-x="287" unicode="]"/>
<glyph d="M19 462l250 299l251 -299h-92l-159 190l-157 -190h-93z" glyph-name="asciicircum" horiz-adv-x="539" unicode="^"/>
<glyph d="M25 0h585v-78h-585v78z" glyph-name="underscore" horiz-adv-x="635" unicode="_"/>
<glyph d="M10 732h113l112 -158h-82z" glyph-name="grave" horiz-adv-x="245" unicode="`"/>
<glyph d="M248 515q127 0 166 -98q14 -37 14 -83v-334h-78l-4 69q-38 -68 -126 -78q-14 -2 -27 -2q-93 0 -130 69q-17 32 -17 73q2 119 141 146l154 29v25q-2 103 -93 104q-70 0 -94 -51q-9 -19 -9 -41h-85q2 73 54 123q53 49 134 49zM341 212v19l-138 -30q-60 -15 -68 -53 q-2 -8 -2 -16q0 -54 59 -62q9 -1 18 -1q66 1 102 50q29 40 29 93z" glyph-name="a" horiz-adv-x="494" unicode="a"/>
<glyph d="M76 730h86v-295q54 80 168 80q106 -1 170 -75q66 -76 66 -188q-1 -114 -65 -189q-66 -74 -170 -74q-115 1 -173 85l-5 -74h-77v730zM317 433q-63 -1 -110 -50q-46 -50 -46 -131v-5q1 -79 46 -128q47 -49 111 -49q91 0 134 77q25 46 25 105q-1 81 -45 130q-46 51 -115 51z " glyph-name="b" horiz-adv-x="601" unicode="b"/>
<glyph d="M280 515q126 0 189 -87q25 -36 35 -81h-86q-25 69 -102 85q-17 3 -35 3q-69 -1 -113 -52q-44 -54 -44 -132q1 -78 45 -130q45 -52 114 -52q76 0 117 54q12 16 18 34h87q-28 -114 -133 -152q-43 -16 -92 -16q-107 1 -176 74q-69 74 -69 188t69 189q71 75 176 75z" glyph-name="c" horiz-adv-x="544" unicode="c"/>
<glyph d="M439 730h86v-730h-77l-5 74q-59 -85 -173 -85q-105 1 -170 74q-65 76 -65 189q1 113 65 188q66 75 171 75q115 -1 168 -80v295zM284 433q-70 -1 -115 -51t-45 -130q0 -107 70 -156q39 -26 89 -26q64 1 110 49q47 51 47 128v5q-1 81 -47 131q-48 50 -109 50z" glyph-name="d" horiz-adv-x="601" unicode="d"/>
<glyph d="M278 515q133 0 193 -102q36 -64 36 -154v-41h-383q7 -95 81 -132q34 -17 75 -17q104 1 136 82h86q-37 -122 -151 -153q-35 -9 -73 -9q-108 1 -175 72q-68 73 -68 190q1 116 67 189q68 75 176 75zM278 435q-90 0 -132 -74q-16 -30 -21 -66h295q-1 87 -69 123 q-32 17 -73 17z" glyph-name="e" horiz-adv-x="553" unicode="e"/>
<glyph d="M256 739q40 0 68 -12v-78q-29 12 -61 12q-70 -2 -71 -82v-75h125v-79h-125v-425h-87v425h-91v79h91v77q0 115 88 148q28 10 63 10z" glyph-name="f" horiz-adv-x="332" unicode="f"/>
<glyph d="M323 504h183v-76h-88q25 -42 25 -94q-1 -77 -53 -128q-53 -51 -139 -51q-61 0 -109 27q-20 -21 -20 -50q0 -41 45 -49q10 -2 19 -2h134q135 0 156 -102q3 -17 3 -35q0 -107 -97 -149q-49 -21 -113 -21q-166 0 -208 96q-12 28 -12 61q1 61 55 91q-55 28 -65 85 q-2 10 -2 20q1 66 52 103q-32 45 -32 104q1 79 53 130q54 51 141 51q36 0 72 -11zM142 334q0 -63 52 -90q26 -13 56 -13q69 0 97 54q11 22 11 49q0 65 -54 93q-24 12 -54 12q-68 0 -96 -53q-12 -24 -12 -52zM303 5h-96q-65 -5 -72 -59q-1 -6 -1 -12q0 -69 95 -81 q19 -3 40 -3q111 0 124 73q1 8 1 17q-2 64 -91 65z" glyph-name="g" horiz-adv-x="501" unicode="g"/>
<glyph d="M76 730h86v-289q30 60 108 72q15 2 30 2q108 0 147 -94q17 -42 17 -95v-326h-87v312q0 96 -68 115q-14 4 -30 4q-68 0 -99 -69q-18 -40 -18 -92v-270h-86v730z" glyph-name="h" horiz-adv-x="532" unicode="h"/>
<glyph d="M182 659q0 -36 -34 -52q-13 -6 -26 -6q-37 0 -53 32q-6 13 -6 26q0 38 34 54q12 5 25 5q38 0 54 -33q6 -13 6 -26zM79 504h86v-504h-86v504z" glyph-name="i" unicode="i"/>
<glyph d="M79 504h86v-559q0 -171 -150 -171q-39 0 -66 8v79q26 -8 53 -8q63 0 74 58q3 16 3 36v557zM182 659q0 -36 -34 -52q-13 -6 -26 -6q-37 0 -53 32q-6 13 -6 26q0 38 34 54q12 5 25 5q38 0 54 -33q6 -13 6 -26z" glyph-name="j" unicode="j"/>
<glyph d="M82 730h86v-462l189 236h105l-163 -209l189 -295h-99l-150 229l-71 -86v-143h-86v730z" glyph-name="k" horiz-adv-x="500" unicode="k"/>
<glyph d="M79 730h86v-730h-86v730z" glyph-name="l" unicode="l"/>
<glyph d="M597 515q109 0 147 -96q16 -41 16 -93v-326h-86v312q0 99 -71 116q-13 3 -26 3q-69 0 -99 -69q-16 -37 -17 -85v-277h-86v312q0 99 -71 116q-13 3 -26 3q-68 0 -99 -70q-17 -40 -17 -91v-270h-86v504h77l5 -69q32 64 108 77q16 3 32 3q108 0 147 -96q51 95 152 96z" glyph-name="m" horiz-adv-x="828" unicode="m"/>
<glyph d="M300 515q108 0 147 -94q17 -42 17 -95v-326h-87v312q0 96 -68 115q-14 4 -30 4q-68 0 -99 -69q-18 -40 -18 -92v-270h-86v504h77l5 -69q43 79 142 80z" glyph-name="n" horiz-adv-x="532" unicode="n"/>
<glyph d="M291 515q112 -1 183 -74q72 -73 72 -189t-72 -189.5t-183 -73.5q-113 1 -185 74q-71 75 -71 189q1 115 71 189q73 74 185 74zM292 435q-76 -1 -122 -52t-46 -131q1 -79 46 -131q47 -52 122 -52q75 1 119 52q46 53 46 131q-1 81 -46 131q-45 52 -119 52z" glyph-name="o" horiz-adv-x="582" unicode="o"/>
<glyph d="M338 515q106 -1 170 -75q65 -75 65 -188q-1 -113 -66 -188t-170 -75t-158 67q-5 7 -9 13v-284h-87v719h78l4 -74q59 85 173 85zM325 434q-65 -1 -111 -49q-46 -50 -46 -128v-5q1 -82 46 -131q48 -50 110 -50q70 1 115 50q45 52 45 131q0 107 -70 156q-39 26 -89 26z" glyph-name="p" horiz-adv-x="609" unicode="p"/>
<glyph d="M270 515q115 -1 173 -85l5 74h77v-719h-86v284q-54 -80 -168 -80q-105 0 -171 75q-65 76 -65 188q1 114 65 188q65 75 170 75zM283 434q-91 0 -134 -77q-25 -46 -25 -105q1 -80 45 -131q46 -50 115 -50q62 1 109 50q47 51 47 131v5q-1 78 -47 128q-47 49 -110 49z" glyph-name="q" horiz-adv-x="609" unicode="q"/>
<glyph d="M316 509v-86q-62 -1 -102 -37q-44 -41 -46 -119v-267h-86v504h77l6 -88q24 66 99 86q25 7 52 7z" glyph-name="r" horiz-adv-x="340" unicode="r"/>
<glyph d="M219 515q73 -1 118 -44q46 -44 48 -115h-88q-3 78 -80 79q-64 0 -75 -50q-2 -9 -2 -18q0 -37 35 -54q21 -10 60 -19q123 -29 152 -88q13 -27 13 -63q0 -93 -80 -133q-42 -21 -97 -21q-124 0 -167 88q-16 34 -17 76h88q3 -83 98 -84q69 0 84 47q3 11 3 21q0 41 -39 60 q-24 11 -66 21q-117 27 -144 86q-11 25 -11 58q1 64 44 108q45 45 123 45z" glyph-name="s" horiz-adv-x="441" unicode="s"/>
<glyph d="M104 630h87l-1 -126h129v-80h-130l-2 -270q0 -62 33 -76q15 -6 39 -6q33 0 60 9v-77q-29 -11 -75 -11q-124 0 -140 105q-3 19 -3 40l2 286h-94v80h94z" glyph-name="t" horiz-adv-x="350" unicode="t"/>
<glyph d="M366 504h86v-504h-77l-5 69q-39 -79 -139 -80q-111 0 -148 99q-14 40 -14 90v326h86v-312q0 -108 80 -119q8 -1 16 -1q69 0 99 69q16 36 16 83v280z" glyph-name="u" horiz-adv-x="528" unicode="u"/>
<glyph d="M394 504h93l-193 -504h-86l-192 504h92l133 -362l10 -38l10 38z" glyph-name="v" horiz-adv-x="502" unicode="v"/>
<glyph d="M660 504h92l-160 -504h-87l-122 360l-123 -360h-84l-160 504h92l105 -352l10 -46l11 46l113 352h74l113 -352l11 -46l10 46z" glyph-name="w" horiz-adv-x="768" unicode="w"/>
<glyph d="M375 504h102l-164 -244l175 -260h-102l-131 192l-130 -192h-102l174 260l-163 244h102l119 -176z" glyph-name="x" horiz-adv-x="511" unicode="x"/>
<glyph d="M394 504h93l-275 -719h-91l84 222l-189 497h92l133 -362l10 -38l10 38z" glyph-name="y" horiz-adv-x="504" unicode="y"/>
<glyph d="M37 504h381v-66l-268 -361h284v-77h-399v66l268 361h-266v77z" glyph-name="z" horiz-adv-x="459" unicode="z"/>
<glyph d="M237 716h28v-79h-26q-64 -2 -65 -72v-146q-1 -77 -58 -100q57 -24 58 -99v-146q2 -71 65 -72h26v-79h-28q-113 0 -138 97q-6 25 -6 52v137q-2 71 -65 72h-16v77h16q64 2 65 72v137q0 117 94 143q23 6 50 6z" glyph-name="braceleft" horiz-adv-x="290" unicode="{"/>
<glyph d="M68 726h82v-793h-82v793z" glyph-name="bar" horiz-adv-x="217" unicode="|"/>
<glyph d="M25 716h28q113 0 138 -97q6 -25 6 -52v-137q2 -71 65 -72h16v-77h-16q-64 -2 -65 -72v-137q0 -117 -94 -143q-23 -6 -50 -6h-28v79h26q64 2 65 72v146q1 76 58 99q-57 24 -58 100v146q-2 71 -65 72h-26v79z" glyph-name="braceright" horiz-adv-x="290" unicode="}"/>
<glyph d="M183 439q66 -1 111 -47q48 -45 94 -46q69 2 95 84l61 -30q-42 -131 -157 -132q-66 1 -112 46q-46 46 -93 47q-69 -2 -95 -84l-61 30q42 131 157 132z" glyph-name="asciitilde" horiz-adv-x="570" unicode="~"/>
<glyph d="M165 -197h-86v500h86v-500zM58 452q0 40 36 56q14 6 28 6q40 0 57 -34q6 -14 6 -28q0 -41 -36 -57q-13 -5 -27 -5q-42 0 -58 36q-6 13 -6 26z" glyph-name="exclamdown" unicode="¡"/>
<glyph d="M247 604h70v-91q116 -15 166 -108q14 -27 21 -58h-86q-27 70 -101 84v-359q75 17 99 80q1 3 2 5h87q-29 -116 -134 -154q-26 -9 -54 -12v-92h-70v92q-94 11 -153 83q-59 73 -59 177q1 105 59 177q59 73 153 85v91zM124 251q0 -95 63 -148q27 -22 60 -30v358 q-73 -17 -106 -93q-17 -40 -17 -87z" glyph-name="cent" horiz-adv-x="544" unicode="¢"/>
<glyph d="M188 369h154v-69h-135q4 -28 4 -50q-1 -73 -41 -138l-16 -26h174q82 0 88 76v14h82q-1 -135 -108 -167q-30 -9 -65 -9h-297v34l41 57q54 76 54 161q0 20 -5 48h-101v69h80l-9 21l-16 44q-12 47 -12 78q1 91 55 146q56 55 141 55q135 0 178 -106q15 -39 16 -87h-84 q0 78 -60 103q-22 9 -47 9q-80 0 -102 -73q-7 -22 -7 -49q0 -35 8 -62q7 -20 8 -24l12 -29z" glyph-name="sterling" horiz-adv-x="508" unicode="£"/>
<glyph d="M422 428l123 122l55 -56l-122 -121q34 -49 34 -111q-1 -62 -35 -112l123 -121l-55 -55l-124 121q-52 -32 -107 -32q-55 1 -106 32l-123 -121l-56 55l122 121q-33 50 -33 112t33 111l-122 121l56 56l122 -122q49 34 107 34q55 -1 108 -34zM314 132q54 1 88 37q35 39 35 93 q-1 57 -36 94q-36 38 -87 38q-52 -1 -87 -38q-34 -38 -34 -94q0 -73 54 -110q31 -20 67 -20z" glyph-name="currency" horiz-adv-x="629" unicode="¤"/>
<glyph d="M411 317h98v-69h-131v-74h131v-69h-131v-105h-92v105h-133v69h133v74h-133v69h100l-244 383h107l189 -294l26 -47l27 47l190 294h107z" glyph-name="yen" horiz-adv-x="663" unicode="¥"/>
<glyph d="M68 726h82v-280h-82v280zM68 213h82v-280h-82v280z" glyph-name="brokenbar" horiz-adv-x="217" unicode="¦"/>
<glyph d="M256 720q120 0 167 -79q19 -35 21 -78h-88q-1 71 -70 85q-15 3 -31 3q-69 0 -88 -50q-5 -14 -5 -29q0 -53 68 -76q22 -7 50 -12q140 -25 175 -85q16 -28 16 -67q-1 -74 -79 -120q59 -38 60 -110q-1 -73 -54 -113t-136 -40q-124 0 -174 77q-23 35 -25 80h89q0 -67 70 -84 q19 -4 41 -4q84 0 98 58q3 10 3 21q0 47 -62 71q-30 11 -75 19q-158 29 -183 111q-5 18 -5 39q1 80 83 127q-48 37 -48 103q0 92 82 132q44 21 100 21zM272 252q23 -4 46 -10q65 29 66 82q0 47 -47 68q-31 15 -92 26q-38 7 -56 13q-61 -28 -62 -83q1 -40 30 -61 q34 -20 115 -35z" glyph-name="section" horiz-adv-x="508" unicode="§"/>
<glyph d="M26 673q24 24 58 12q11 -4 19 -12q24 -23 12 -57q-4 -12 -12 -20q-24 -24 -58 -12q-11 5 -19 12q-24 24 -12 58q4 11 12 19zM252 689q37 0 51 -32q4 -11 4 -22q0 -36 -33 -50q-11 -4 -22 -4q-37 0 -50 33q-4 11 -4 21q0 36 33 50q10 4 21 4z" glyph-name="dieresis" horiz-adv-x="317" unicode="¨"/>
<glyph d="M298 621q102 -2 128 -98h-68q-16 39 -60 39q-53 0 -71 -49q-6 -17 -6 -37q0 -62 46 -81q15 -6 31 -6q49 1 64 43h65q-24 -100 -129 -101q-80 0 -120 63q-23 36 -23 82q0 81 61 122q36 23 82 23zM295 745q119 -1 190 -76q73 -77 73 -193q-1 -117 -73 -193t-190 -76 q-119 1 -192 76q-73 77 -73 193q1 117 73 193q74 76 192 76zM89 476q0 -92 57 -153t149 -61q92 1 147 61q57 61 57 153q-1 93 -56 153q-56 61 -148 61q-93 -1 -149 -61q-57 -60 -57 -153z" glyph-name="copyright" horiz-adv-x="588" unicode="©"/>
<glyph d="M189 710q106 0 129 -83q5 -19 5 -41v-227h-61l-3 42q-40 -49 -108 -49q-75 0 -98 56q-7 18 -7 39q2 82 104 102l104 20v15q-2 62 -65 63q-55 0 -65 -42q-1 -7 -1 -14h-68q3 73 65 104q31 15 69 15zM254 494v18l-92 -18q-46 -10 -47 -43q0 -30 34 -37q7 -1 14 -1 q49 1 73 31q18 23 18 50z" glyph-name="ordfeminine" horiz-adv-x="381" unicode="ª"/>
<glyph d="M147 446h87l-140 -196l140 -195h-87l-134 187v17zM357 446h87l-140 -196l140 -195h-87l-134 187v17z" glyph-name="guillemotleft" horiz-adv-x="457" unicode="«"/>
<glyph d="M39 432h505v-275h-64v209h-441v66z" glyph-name="logicalnot" horiz-adv-x="581" unicode="¬"/>
<glyph d="M295 745q119 -1 190 -76q73 -77 73 -193q-1 -117 -73 -193t-190 -76q-119 1 -192 76q-73 77 -73 193q1 117 73 193q74 76 192 76zM89 476q0 -92 57 -153t149 -61q92 1 147 61q57 61 57 153q-1 93 -56 153q-56 61 -148 61q-93 -1 -149 -61q-57 -60 -57 -153zM197 615h102 q69 0 93 -51q8 -19 8 -40q-1 -53 -48 -76l60 -113h-72l-50 102h-30v-102h-63v280zM295 562h-35v-77h35q41 2 42 38q0 39 -42 39z" glyph-name="registered" horiz-adv-x="588" unicode="®"/>
<glyph d="M10 666h262v-71h-262v71z" glyph-name="overscore" horiz-adv-x="282" unicode="¯"/>
<glyph d="M170 722q85 0 127 -64q23 -36 23 -83q0 -84 -66 -125q-37 -22 -84 -22q-62 1 -106 41q-42 41 -42 106q1 66 42 106q45 41 106 41zM170 660q-53 0 -74 -45q-9 -19 -9 -40q0 -55 45 -77q18 -8 38 -8q54 0 77 44q9 19 9 41q0 55 -47 77q-18 8 -39 8z" glyph-name="degree" horiz-adv-x="343" unicode="°"/>
<glyph d="M196 644h80v-167h166v-78h-166v-167h-80v167h-166v78h166v167zM30 165h412v-78h-412v78z" glyph-name="plusminus" horiz-adv-x="472" unicode="±"/>
<glyph d="M162 807q92 0 117 -68q7 -21 7 -44q-1 -58 -52 -114l-96 -107h151v-66h-248v51l131 147q42 46 43 84q-2 51 -54 52q-46 0 -55 -45q-1 -8 -1 -16h-70q0 79 62 111q29 15 65 15z" glyph-name="two.sups" horiz-adv-x="322" unicode="²"/>
<glyph d="M296 694q0 -58 -49 -80q-4 -1 -6 -2q66 -27 69 -93q0 -74 -66 -104q-30 -14 -68 -14q-105 0 -131 77q-7 22 -7 47h70q0 -51 54 -59q8 -1 15 -1q47 0 60 37q3 10 3 20q0 60 -84 60h-20v57h19q70 1 71 53q0 42 -39 50q-7 1 -14 1q-45 0 -55 -39q-2 -9 -2 -18h-70 q0 84 70 111q26 10 56 10q80 0 111 -59q13 -25 13 -54z" glyph-name="three.sups" horiz-adv-x="350" unicode="³"/>
<glyph d="M121 732h114l-143 -158h-82z" glyph-name="acute" horiz-adv-x="245" unicode="´"/>
<glyph d="M373 504h86v-504h-77l-5 69q-39 -79 -139 -80q-43 0 -76 16v-220h-86v719h86v-318q2 -114 96 -114q69 0 99 69q16 36 16 83v280z" glyph-name="mu" horiz-adv-x="535" unicode="µ"/>
<glyph d="M228 700h348v-61h-88v-719h-62v719h-118v-719h-62v393h-18q-90 1 -147 53q-56 55 -56 139q1 86 56 140q57 55 147 55z" glyph-name="paragraph" horiz-adv-x="597" unicode="¶"/>
<glyph d="M101 322q40 0 57 -34q6 -14 6 -28q0 -40 -35 -57q-14 -6 -28 -6q-41 0 -57 36q-6 13 -6 27q0 40 36 56q13 6 27 6z" glyph-name="middot" horiz-adv-x="202" unicode="·"/>
<glyph d="M78 6h52l-15 -64h3q61 0 81 -47q7 -17 7 -36q0 -63 -61 -83q-20 -6 -44 -6q-58 1 -91 36l32 44q24 -26 61 -26q44 2 45 34q-2 34 -42 35q-12 0 -33 -5l-22 9z" glyph-name="cedilla" horiz-adv-x="216" unicode="¸"/>
<glyph d="M137 800h52v-392h-70v288h-88v51q87 0 104 45z" glyph-name="one.sups" horiz-adv-x="246" unicode="¹"/>
<glyph d="M399 530q-1 -79 -51 -128q-52 -50 -130 -50q-79 1 -130 50q-51 50 -51 128q1 79 50 129q52 51 131 51q81 -1 130 -51q51 -49 51 -129zM219 647q-66 0 -96 -56q-14 -27 -14 -60q0 -69 52 -101q26 -15 58 -15q64 0 94 54q15 28 15 62q0 69 -52 101q-26 15 -57 15z" glyph-name="ordmasculine" horiz-adv-x="437" unicode="º"/>
<glyph d="M13 446h87l134 -187v-17l-134 -187h-87l140 195zM223 446h87l134 -187v-17l-134 -187h-87l140 195z" glyph-name="guillemotright" horiz-adv-x="457" unicode="»"/>
<glyph d="M526 392h85v-257h56v-62h-56v-73h-70v73h-177v56zM542 135v168l-12 -23l-91 -145h103zM137 700h52v-392h-70v288h-88v51q87 0 104 45zM493 700h95l-420 -700h-95z" glyph-name="onequarter" horiz-adv-x="699" unicode="¼"/>
<glyph d="M554 399q92 0 117 -68q7 -21 7 -44q-1 -58 -52 -114l-96 -107h151v-66h-248v51l131 147q42 46 43 84q-2 51 -54 52q-46 0 -55 -45q-1 -8 -1 -16h-70q0 79 62 111q29 15 65 15zM137 700h52v-392h-70v288h-88v51q87 0 104 45zM493 700h95l-420 -700h-95z" glyph-name="onehalf" horiz-adv-x="714" unicode="½"/>
<glyph d="M296 594q0 -58 -49 -80q-4 -1 -6 -2q66 -27 69 -93q0 -74 -66 -104q-30 -14 -68 -14q-105 0 -131 77q-7 22 -7 47h70q0 -51 54 -59q8 -1 15 -1q47 0 60 37q3 10 3 20q0 60 -84 60h-20v57h19q70 1 71 53q0 42 -39 50q-7 1 -14 1q-45 0 -55 -39q-2 -9 -2 -18h-70 q0 84 70 111q26 10 56 10q80 0 111 -59q13 -25 13 -54zM608 392h85v-257h56v-62h-56v-73h-70v73h-177v56zM624 135v168l-12 -23l-91 -145h103zM574 700h95l-420 -700h-95z" glyph-name="threequarters" horiz-adv-x="781" unicode="¾"/>
<glyph d="M212 -213q-84 1 -142 51q-57 52 -57 140q1 93 56 151q12 12 36 34q52 48 63 75q6 15 6 30v35h87v-38q-1 -66 -58 -118q-55 -48 -71 -68q-35 -46 -35 -98q0 -89 69 -114q21 -7 45 -7q90 0 113 79q6 22 6 48h83q-2 -95 -58 -147q-57 -53 -143 -53zM154 452q0 39 35 56 q14 6 28 6q41 0 57 -36q6 -13 6 -26q0 -41 -36 -57q-13 -5 -27 -5q-42 0 -57 35q-6 13 -6 27z" glyph-name="questiondown" horiz-adv-x="415" unicode="¿"/>
<glyph d="M358 545l-13 38l-13 -38l-110 -275h247zM299 700h94l281 -700h-100l-74 185h-309l-73 -185h-100zM170 841h132l96 -109h-96z" glyph-name="Agrave" horiz-adv-x="692" unicode="À"/>
<glyph d="M358 545l-13 38l-13 -38l-110 -275h247zM299 700h94l281 -700h-100l-74 185h-309l-73 -185h-100zM383 841h131l-131 -109h-97z" glyph-name="Aacute" horiz-adv-x="692" unicode="Á"/>
<glyph d="M358 545l-13 38l-13 -38l-110 -275h247zM299 700h94l281 -700h-100l-74 185h-309l-73 -185h-100zM318 844h56l143 -113h-109l-63 55l-62 -55h-108z" glyph-name="Acircumflex" horiz-adv-x="692" unicode="Â"/>
<glyph d="M358 545l-13 38l-13 -38l-110 -275h247zM299 700h94l281 -700h-100l-74 185h-309l-73 -185h-100zM285 857q47 0 81 -37q24 -25 36 -28q6 -2 11 -2q38 2 39 58h58q0 -91 -64 -115q-18 -7 -40 -7q-47 0 -81 37q-24 26 -36 29q-6 2 -11 2q-38 -2 -39 -59h-58q0 96 69 117 q17 5 35 5z" glyph-name="Atilde" horiz-adv-x="692" unicode="Ã"/>
<glyph d="M358 545l-13 38l-13 -38l-110 -275h247zM299 700h94l281 -700h-100l-74 185h-309l-73 -185h-100zM305 786q0 -34 -30 -49q-12 -5 -24 -5q-37 0 -51 32q-4 11 -4 22q0 36 33 50q11 4 22 4q37 0 50 -33q4 -11 4 -21zM438 732q-32 0 -48 30q-6 12 -6 24q-3 34 31 49 q37 14 62 -11q26 -23 11 -59q-14 -33 -46 -33h-4z" glyph-name="Adieresis" horiz-adv-x="692" unicode="Ä"/>
<glyph d="M358 545l-13 38l-13 -38l-110 -275h247zM299 700h94l281 -700h-100l-74 185h-309l-73 -185h-100zM345 859q-29 2 -36 -28q-7 -29 12 -45q11 -8 24 -7q30 -2 37 28q8 29 -13 45q-10 8 -24 7zM276 885q27 27 69 27t69 -27q27 -25 27 -66q-1 -40 -27 -67q-27 -27 -69 -27 t-69 27q-27 28 -27 67q0 41 27 66z" glyph-name="Aring" horiz-adv-x="692" unicode="Å"/>
<glyph d="M471 700h413v-85h-295v-212h259v-85h-259v-233h295v-85h-386v188h-253l-127 -188h-107zM498 268v315l-21 -38l-182 -277h203z" glyph-name="AE" horiz-adv-x="931" unicode="Æ"/>
<glyph d="M386 713q183 0 269 -130q27 -41 42 -91h-101q-51 135 -210 136q-111 -1 -181 -79t-70 -199q1 -120 70 -199q71 -79 182 -79q136 0 195 100q11 19 18 39h98q-48 -167 -202 -210q-42 -11 -89 -13l-10 -46h3q61 0 81 -47q7 -17 7 -36q0 -63 -61 -83q-20 -6 -44 -6 q-58 1 -91 36l32 44q24 -26 61 -26q44 2 45 34q-2 34 -42 35q-12 0 -33 -5l-22 9l22 91q-138 11 -227 112q-88 102 -88 250q1 157 97 260q98 103 249 103z" glyph-name="Ccedilla" horiz-adv-x="728" unicode="Ç"/>
<glyph d="M78 700h385v-85h-294v-212h259v-85h-259v-233h294v-85h-385v700zM104 841h132l96 -109h-96z" glyph-name="Egrave" horiz-adv-x="510" unicode="È"/>
<glyph d="M78 700h385v-85h-294v-212h259v-85h-259v-233h294v-85h-385v700zM316 841h131l-131 -109h-97z" glyph-name="Eacute" horiz-adv-x="510" unicode="É"/>
<glyph d="M78 700h385v-85h-294v-212h259v-85h-259v-233h294v-85h-385v700zM251 844h56l143 -113h-109l-63 55l-62 -55h-108z" glyph-name="Ecircumflex" horiz-adv-x="510" unicode="Ê"/>
<glyph d="M78 700h385v-85h-294v-212h259v-85h-259v-233h294v-85h-385v700zM239 786q0 -34 -30 -49q-12 -5 -24 -5q-37 0 -51 32q-4 11 -4 22q0 36 33 50q11 4 22 4q37 0 50 -33q4 -11 4 -21zM372 732q-32 0 -48 30q-6 12 -6 24q-3 34 31 49q37 14 62 -11q26 -23 11 -59 q-14 -33 -46 -33h-4z" glyph-name="Edieresis" horiz-adv-x="510" unicode="Ë"/>
<glyph d="M78 700h91v-700h-91v700zM-52 841h132l96 -109h-96z" glyph-name="Igrave" horiz-adv-x="247" unicode="Ì"/>
<glyph d="M78 700h91v-700h-91v700zM160 841h131l-131 -109h-97z" glyph-name="Iacute" horiz-adv-x="247" unicode="Í"/>
<glyph d="M96 844h56l143 -113h-109l-63 55l-62 -55h-108zM78 700h91v-700h-91v700z" glyph-name="Icircumflex" horiz-adv-x="247" unicode="Î"/>
<glyph d="M78 700h91v-700h-91v700zM84 786q0 -32 -30 -48q-12 -6 -24 -6q-34 -3 -50 31q-16 35 8 59q2 1 3 2q24 27 60 11q34 -15 33 -49zM163 786q0 37 33 50q11 4 21 4q37 0 51 -32q4 -11 4 -22q0 -36 -33 -50q-11 -4 -22 -4q-36 0 -50 33q-4 10 -4 21z" glyph-name="Idieresis" horiz-adv-x="247" unicode="Ï"/>
<glyph d="M87 700h252q162 0 258 -96q97 -96 97 -254q-1 -159 -97 -254q-96 -96 -258 -96h-252v318h-86v70h86v312zM339 615h-161v-227h131v-70h-131v-233h161q152 0 220 107q42 65 42 158q0 158 -109 226q-64 39 -153 39z" glyph-name="Eth" horiz-adv-x="738" unicode="Ð"/>
<glyph d="M543 700h91v-700h-90l-348 502l-27 43v-545h-91v700h89l346 -500l30 -46v546zM295 857q47 0 81 -37q24 -25 36 -28q6 -2 11 -2q38 2 39 58h58q0 -91 -64 -115q-18 -7 -40 -7q-47 0 -81 37q-24 26 -36 29q-6 2 -11 2q-38 -2 -39 -59h-58q0 96 69 117q17 5 35 5z" glyph-name="Ntilde" horiz-adv-x="711" unicode="Ñ"/>
<glyph d="M398 713q156 -1 256 -103q101 -105 101 -259q-1 -157 -101 -261q-101 -103 -256 -103q-157 1 -257 103q-101 105 -101 261q1 155 101 259q101 103 257 103zM398 628q-117 -1 -190 -79t-73 -198q1 -121 73 -200q74 -79 190 -79q115 1 188 79q74 81 74 200q-1 120 -74 198 q-74 79 -188 79zM222 851h132l96 -109h-96z" glyph-name="Ograve" horiz-adv-x="795" unicode="Ò"/>
<glyph d="M398 713q156 -1 256 -103q101 -105 101 -259q-1 -157 -101 -261q-101 -103 -256 -103q-157 1 -257 103q-101 105 -101 261q1 155 101 259q101 103 257 103zM398 628q-117 -1 -190 -79t-73 -198q1 -121 73 -200q74 -79 190 -79q115 1 188 79q74 81 74 200q-1 120 -74 198 q-74 79 -188 79zM435 851h131l-131 -109h-97z" glyph-name="Oacute" horiz-adv-x="795" unicode="Ó"/>
<glyph d="M398 713q156 -1 256 -103q101 -105 101 -259q-1 -157 -101 -261q-101 -103 -256 -103q-157 1 -257 103q-101 105 -101 261q1 155 101 259q101 103 257 103zM398 628q-117 -1 -190 -79t-73 -198q1 -121 73 -200q74 -79 190 -79q115 1 188 79q74 81 74 200q-1 120 -74 198 q-74 79 -188 79zM370 854h56l143 -113h-109l-63 55l-62 -55h-108z" glyph-name="Ocircumflex" horiz-adv-x="795" unicode="Ô"/>
<glyph d="M337 867q47 0 81 -37q24 -25 36 -28q6 -2 11 -2q38 2 39 58h58q0 -91 -64 -115q-18 -7 -40 -7q-47 0 -81 37q-24 26 -36 29q-6 2 -11 2q-38 -2 -39 -59h-58q0 96 69 117q17 5 35 5zM398 713q156 -1 256 -103q101 -105 101 -259q-1 -157 -101 -261q-101 -103 -256 -103 q-157 1 -257 103q-101 105 -101 261q1 155 101 259q101 103 257 103zM398 628q-117 -1 -190 -79t-73 -198q1 -121 73 -200q74 -79 190 -79q115 1 188 79q74 81 74 200q-1 120 -74 198q-74 79 -188 79z" glyph-name="Otilde" horiz-adv-x="795" unicode="Õ"/>
<glyph d="M398 713q156 -1 256 -103q101 -105 101 -259q-1 -157 -101 -261q-101 -103 -256 -103q-157 1 -257 103q-101 105 -101 261q1 155 101 259q101 103 257 103zM398 628q-117 -1 -190 -79t-73 -198q1 -121 73 -200q74 -79 190 -79q115 1 188 79q74 81 74 200q-1 120 -74 198 q-74 79 -188 79zM357 796q0 -34 -30 -49q-12 -5 -24 -5q-37 0 -51 32q-4 11 -4 22q0 36 33 50q11 4 22 4q37 0 50 -33q4 -11 4 -21zM490 742q-32 0 -48 30q-6 12 -6 24q-3 34 31 49q37 14 62 -11q26 -23 11 -59q-14 -33 -46 -33h-4z" glyph-name="Odieresis" horiz-adv-x="795" unicode="Ö"/>
<glyph d="M209 406l127 126l56 -56l-127 -127l127 -127l-56 -55l-126 127l-127 -127l-56 56l127 127l-127 127l55 55z" glyph-name="multiply" horiz-adv-x="419" unicode="×"/>
<glyph d="M398 713q75 0 142 -27l45 80l71 -34l-47 -84q113 -80 139 -223q7 -37 7 -74q-1 -157 -101 -261q-101 -103 -256 -103q-76 0 -144 27l-47 -83l-71 34l49 87q-112 80 -138 225q-7 37 -7 74q1 155 101 259q101 103 257 103zM660 351q-1 138 -95 219l-269 -480 q46 -18 102 -18q115 1 188 79q74 81 74 200zM398 628q-117 -1 -190 -79t-73 -198q1 -141 94 -220l268 479q-45 18 -99 18z" glyph-name="Oslash" horiz-adv-x="795" unicode="Ø"/>
<glyph d="M527 700h91v-423q0 -203 -144 -266q-57 -24 -130 -24q-186 0 -248 143q-27 63 -27 147v423h91v-423q2 -204 184 -205q164 0 181 167q2 19 2 38v423zM168 841h132l96 -109h-96z" glyph-name="Ugrave" horiz-adv-x="687" unicode="Ù"/>
<glyph d="M527 700h91v-423q0 -203 -144 -266q-57 -24 -130 -24q-186 0 -248 143q-27 63 -27 147v423h91v-423q2 -204 184 -205q164 0 181 167q2 19 2 38v423zM381 841h131l-131 -109h-97z" glyph-name="Uacute" horiz-adv-x="687" unicode="Ú"/>
<glyph d="M527 700h91v-423q0 -203 -144 -266q-57 -24 -130 -24q-186 0 -248 143q-27 63 -27 147v423h91v-423q2 -204 184 -205q164 0 181 167q2 19 2 38v423zM316 844h56l143 -113h-109l-63 55l-62 -55h-108z" glyph-name="Ucircumflex" horiz-adv-x="687" unicode="Û"/>
<glyph d="M527 700h91v-423q0 -203 -144 -266q-57 -24 -130 -24q-186 0 -248 143q-27 63 -27 147v423h91v-423q2 -204 184 -205q164 0 181 167q2 19 2 38v423zM303 786q0 -34 -30 -49q-12 -5 -24 -5q-37 0 -51 32q-4 11 -4 22q0 36 33 50q11 4 22 4q37 0 50 -33q4 -11 4 -21z M436 732q-32 0 -48 30q-6 12 -6 24q-3 34 31 49q37 14 62 -11q26 -23 11 -59q-14 -33 -46 -33h-4z" glyph-name="Udieresis" horiz-adv-x="687" unicode="Ü"/>
<glyph d="M553 700h107l-277 -435v-265h-92v265l-277 435h107l189 -294l26 -47l27 47zM374 841h131l-131 -109h-97z" glyph-name="Yacute" horiz-adv-x="674" unicode="Ý"/>
<glyph d="M78 700h91v-111h132q131 0 190 -85q34 -50 34 -116q-1 -90 -61 -145t-163 -55h-132v-188h-91v700zM301 503h-132v-229h132q94 0 123 66q9 22 9 48q0 79 -71 105q-28 10 -61 10z" glyph-name="Thorn" horiz-adv-x="563" unicode="Þ"/>
<glyph d="M276 735v-83q-108 -2 -109 -119v-29h330v-69l-147 -221q92 -11 144 -70q53 -61 53 -141q0 -151 -117 -201q-51 -22 -118 -22q-39 0 -83 8l4 87q46 -11 72 -11q123 0 146 95q5 20 5 43q0 87 -78 121q-37 15 -83 15h-47v59l149 227h-230v-424h-90v531q2 203 199 204z" glyph-name="germandbls" horiz-adv-x="554" unicode="ß"/>
<glyph d="M248 515q127 0 166 -98q14 -37 14 -83v-334h-78l-4 69q-38 -68 -126 -78q-14 -2 -27 -2q-93 0 -130 69q-17 32 -17 73q2 119 141 146l154 29v25q-2 103 -93 104q-70 0 -94 -51q-9 -19 -9 -41h-85q2 73 54 123q53 49 134 49zM341 212v19l-138 -30q-60 -15 -68 -53 q-2 -8 -2 -16q0 -54 59 -62q9 -1 18 -1q66 1 102 50q29 40 29 93zM68 732h113l112 -158h-82z" glyph-name="agrave" horiz-adv-x="494" unicode="à"/>
<glyph d="M248 515q127 0 166 -98q14 -37 14 -83v-334h-78l-4 69q-38 -68 -126 -78q-14 -2 -27 -2q-93 0 -130 69q-17 32 -17 73q2 119 141 146l154 29v25q-2 103 -93 104q-70 0 -94 -51q-9 -19 -9 -41h-85q2 73 54 123q53 49 134 49zM341 212v19l-138 -30q-60 -15 -68 -53 q-2 -8 -2 -16q0 -54 59 -62q9 -1 18 -1q66 1 102 50q29 40 29 93zM312 732h114l-143 -158h-82z" glyph-name="aacute" horiz-adv-x="494" unicode="á"/>
<glyph d="M248 515q127 0 166 -98q14 -37 14 -83v-334h-78l-4 69q-38 -68 -126 -78q-14 -2 -27 -2q-93 0 -130 69q-17 32 -17 73q2 119 141 146l154 29v25q-2 103 -93 104q-70 0 -94 -51q-9 -19 -9 -41h-85q2 73 54 123q53 49 134 49zM341 212v19l-138 -30q-60 -15 -68 -53 q-2 -8 -2 -16q0 -54 59 -62q9 -1 18 -1q66 1 102 50q29 40 29 93zM221 732h56l136 -158h-96l-68 92l-68 -92h-96z" glyph-name="acircumflex" horiz-adv-x="494" unicode="â"/>
<glyph d="M248 515q127 0 166 -98q14 -37 14 -83v-334h-78l-4 69q-38 -68 -126 -78q-14 -2 -27 -2q-93 0 -130 69q-17 32 -17 73q2 119 141 146l154 29v25q-2 103 -93 104q-70 0 -94 -51q-9 -19 -9 -41h-85q2 73 54 123q53 49 134 49zM341 212v19l-138 -30q-60 -15 -68 -53 q-2 -8 -2 -16q0 -54 59 -62q9 -1 18 -1q66 1 102 50q29 40 29 93zM192 706q47 0 79 -38q23 -27 32 -31t17 -4q38 2 39 64h58q0 -96 -64 -121q-19 -7 -40 -7q-47 0 -79 39q-23 26 -32 31q-9 4 -17 4q-38 -2 -39 -65h-58q0 102 70 123q16 5 34 5z" glyph-name="atilde" horiz-adv-x="494" unicode="ã"/>
<glyph d="M248 515q127 0 166 -98q14 -37 14 -83v-334h-78l-4 69q-38 -68 -126 -78q-14 -2 -27 -2q-93 0 -130 69q-17 32 -17 73q2 119 141 146l154 29v25q-2 103 -93 104q-70 0 -94 -51q-9 -19 -9 -41h-85q2 73 54 123q53 49 134 49zM341 212v19l-138 -30q-60 -15 -68 -53 q-2 -8 -2 -16q0 -54 59 -62q9 -1 18 -1q66 1 102 50q29 40 29 93zM156 689q34 0 49 -30q5 -12 5 -24q0 -37 -33 -50q-11 -4 -21 -4q-37 0 -51 32q-4 11 -4 22q0 36 33 50q11 4 22 4zM304 673q25 25 59 12q11 -5 19 -12q24 -23 12 -57q-4 -12 -12 -20q-25 -24 -59 -11 q-11 4 -19 11q-24 25 -12 59q5 11 12 18z" glyph-name="adieresis" horiz-adv-x="494" unicode="ä"/>
<glyph d="M248 515q127 0 166 -98q14 -37 14 -83v-334h-78l-4 69q-38 -68 -126 -78q-14 -2 -27 -2q-93 0 -130 69q-17 32 -17 73q2 119 141 146l154 29v25q-2 103 -93 104q-70 0 -94 -51q-9 -19 -9 -41h-85q2 73 54 123q53 49 134 49zM341 212v19l-138 -30q-60 -15 -68 -53 q-2 -8 -2 -16q0 -54 59 -62q9 -1 18 -1q66 1 102 50q29 40 29 93zM251 762q65 0 93 -52q13 -24 13 -52q0 -59 -50 -88q-25 -14 -56 -14q-61 0 -90 49q-15 25 -15 53q0 62 51 90q25 14 54 14zM251 708q-34 0 -45 -31q-3 -9 -3 -18q0 -33 29 -45q10 -4 19 -4q35 0 46 32 q3 9 3 17q0 35 -31 46q-9 3 -18 3z" glyph-name="aring" horiz-adv-x="494" unicode="å"/>
<glyph d="M584 515q133 0 193 -102q36 -64 36 -154v-41h-383q7 -95 81 -132q34 -17 75 -17q104 1 136 82h86q-37 -122 -151 -153q-35 -9 -73 -9q-138 0 -204 108q-60 -108 -183 -108q-101 0 -137 73q-14 30 -14 67q0 106 114 140q13 4 27 7l154 30v22q-2 106 -96 107q-74 0 -94 -57 q-6 -16 -6 -35h-85q2 74 52 123q51 49 133 49q112 -1 158 -79q69 79 181 79zM584 435q-90 0 -132 -74q-16 -30 -21 -66h295q-1 87 -69 123q-32 17 -73 17zM341 200v31l-128 -28q-64 -14 -76 -45q-4 -12 -4 -27q0 -48 52 -59q13 -3 26 -3q66 1 100 46q30 40 30 85z" glyph-name="ae" horiz-adv-x="859" unicode="æ"/>
<glyph d="M280 515q126 0 189 -87q25 -36 35 -81h-86q-25 69 -102 85q-17 3 -35 3q-69 -1 -113 -52q-44 -54 -44 -132q1 -78 45 -130q45 -52 114 -52q76 0 117 54q12 16 18 34h87q-26 -109 -125 -149q-37 -15 -78 -18l-11 -48h3q61 0 81 -47q7 -17 7 -36q0 -63 -61 -83 q-20 -6 -44 -6q-58 1 -91 36l32 44q24 -26 61 -26q44 2 45 34q-2 34 -42 35q-12 0 -33 -5l-22 9l23 94q-95 11 -155 83t-60 177q0 114 69 189q71 75 176 75z" glyph-name="ccedilla" horiz-adv-x="544" unicode="ç"/>
<glyph d="M278 515q133 0 193 -102q36 -64 36 -154v-41h-383q7 -95 81 -132q34 -17 75 -17q104 1 136 82h86q-37 -122 -151 -153q-35 -9 -73 -9q-108 1 -175 72q-68 73 -68 190q1 116 67 189q68 75 176 75zM278 435q-90 0 -132 -74q-16 -30 -21 -66h295q-1 87 -69 123 q-32 17 -73 17zM92 732h113l112 -158h-82z" glyph-name="egrave" horiz-adv-x="553" unicode="è"/>
<glyph d="M278 515q133 0 193 -102q36 -64 36 -154v-41h-383q7 -95 81 -132q34 -17 75 -17q104 1 136 82h86q-37 -122 -151 -153q-35 -9 -73 -9q-108 1 -175 72q-68 73 -68 190q1 116 67 189q68 75 176 75zM278 435q-90 0 -132 -74q-16 -30 -21 -66h295q-1 87 -69 123 q-32 17 -73 17zM336 732h114l-143 -158h-82z" glyph-name="eacute" horiz-adv-x="553" unicode="é"/>
<glyph d="M278 515q133 0 193 -102q36 -64 36 -154v-41h-383q7 -95 81 -132q34 -17 75 -17q104 1 136 82h86q-37 -122 -151 -153q-35 -9 -73 -9q-108 1 -175 72q-68 73 -68 190q1 116 67 189q68 75 176 75zM278 435q-90 0 -132 -74q-16 -30 -21 -66h295q-1 87 -69 123 q-32 17 -73 17zM245 732h56l136 -158h-96l-68 92l-68 -92h-96z" glyph-name="ecircumflex" horiz-adv-x="553" unicode="ê"/>
<glyph d="M278 515q133 0 193 -102q36 -64 36 -154v-41h-383q7 -95 81 -132q34 -17 75 -17q104 1 136 82h86q-37 -122 -151 -153q-35 -9 -73 -9q-108 1 -175 72q-68 73 -68 190q1 116 67 189q68 75 176 75zM278 435q-90 0 -132 -74q-16 -30 -21 -66h295q-1 87 -69 123 q-32 17 -73 17zM184 689q34 0 49 -30q5 -12 5 -24q0 -37 -33 -50q-11 -4 -21 -4q-37 0 -51 32q-4 11 -4 22q0 36 33 50q11 4 22 4zM332 673q25 25 59 12q11 -5 19 -12q24 -23 12 -57q-4 -12 -12 -20q-25 -24 -59 -11q-11 4 -19 11q-24 25 -12 59q5 11 12 18z" glyph-name="edieresis" horiz-adv-x="553" unicode="ë"/>
<glyph d="M79 504h86v-504h-86v504zM-59 732h113l112 -158h-82z" glyph-name="igrave" unicode="ì"/>
<glyph d="M79 504h86v-504h-86v504zM184 732h114l-143 -158h-82z" glyph-name="iacute" unicode="í"/>
<glyph d="M79 504h86v-504h-86v504zM94 732h56l136 -158h-96l-68 92l-68 -92h-96z" glyph-name="icircumflex" unicode="î"/>
<glyph d="M-10 673q24 24 58 12q11 -4 19 -12q24 -23 12 -57q-4 -12 -12 -20q-24 -24 -58 -12q-11 5 -19 12q-24 24 -12 58q4 11 12 19zM216 689q37 0 51 -32q4 -11 4 -22q0 -36 -33 -50q-11 -4 -22 -4q-37 0 -50 33q-4 11 -4 21q0 36 33 50q10 4 21 4zM79 504h86v-504h-86v504z " glyph-name="idieresis" unicode="ï"/>
<glyph d="M273 630h153v-78h-91l120 -151q64 -79 64 -170q-1 -106 -68 -174q-69 -68 -172 -68q-105 1 -173 68q-67 68 -67 174q1 106 67 173q69 68 173 68h12l-63 80h-156v78h94l-79 100h107zM388 350l-4 4q-39 39 -105 39q-68 -1 -111 -46q-42 -46 -42 -116q0 -71 42 -117 q44 -46 111 -46q69 1 110 46q43 47 43 117q-1 65 -44 119z" glyph-name="eth" horiz-adv-x="557" unicode="ð"/>
<glyph d="M217 706q47 0 79 -38q23 -27 32 -31t17 -4q38 2 39 64h58q0 -96 -64 -121q-19 -7 -40 -7q-47 0 -79 39q-23 26 -32 31q-9 4 -17 4q-38 -2 -39 -65h-58q0 102 70 123q16 5 34 5zM300 515q108 0 147 -94q17 -42 17 -95v-326h-87v312q0 96 -68 115q-14 4 -30 4 q-68 0 -99 -69q-18 -40 -18 -92v-270h-86v504h77l5 -69q43 79 142 80z" glyph-name="ntilde" horiz-adv-x="537" unicode="ñ"/>
<glyph d="M291 515q112 -1 183 -74q72 -73 72 -189t-72 -189.5t-183 -73.5q-113 1 -185 74q-71 75 -71 189q1 115 71 189q73 74 185 74zM292 435q-76 -1 -122 -52t-46 -131q1 -79 46 -131q47 -52 122 -52q75 1 119 52q46 53 46 131q-1 81 -46 131q-45 52 -119 52zM110 732h113 l112 -158h-82z" glyph-name="ograve" horiz-adv-x="582" unicode="ò"/>
<glyph d="M291 515q112 -1 183 -74q72 -73 72 -189t-72 -189.5t-183 -73.5q-113 1 -185 74q-71 75 -71 189q1 115 71 189q73 74 185 74zM292 435q-76 -1 -122 -52t-46 -131q1 -79 46 -131q47 -52 122 -52q75 1 119 52q46 53 46 131q-1 81 -46 131q-45 52 -119 52zM353 732h114 l-143 -158h-82z" glyph-name="oacute" horiz-adv-x="582" unicode="ó"/>
<glyph d="M291 515q112 -1 183 -74q72 -73 72 -189t-72 -189.5t-183 -73.5q-113 1 -185 74q-71 75 -71 189q1 115 71 189q73 74 185 74zM292 435q-76 -1 -122 -52t-46 -131q1 -79 46 -131q47 -52 122 -52q75 1 119 52q46 53 46 131q-1 81 -46 131q-45 52 -119 52zM262 732h56 l136 -158h-96l-68 92l-68 -92h-96z" glyph-name="ocircumflex" horiz-adv-x="582" unicode="ô"/>
<glyph d="M231 706q47 0 79 -38q23 -27 32 -31t17 -4q38 2 39 64h58q0 -96 -64 -121q-19 -7 -40 -7q-47 0 -79 39q-23 26 -32 31q-9 4 -17 4q-38 -2 -39 -65h-58q0 102 70 123q16 5 34 5zM291 515q112 -1 183 -74q72 -73 72 -189t-72 -189.5t-183 -73.5q-113 1 -185 74 q-71 75 -71 189q1 115 71 189q73 74 185 74zM292 435q-76 -1 -122 -52t-46 -131q1 -79 46 -131q47 -52 122 -52q75 1 119 52q46 53 46 131q-1 81 -46 131q-45 52 -119 52z" glyph-name="otilde" horiz-adv-x="582" unicode="õ"/>
<glyph d="M291 515q112 -1 183 -74q72 -73 72 -189t-72 -189.5t-183 -73.5q-113 1 -185 74q-71 75 -71 189q1 115 71 189q73 74 185 74zM292 435q-76 -1 -122 -52t-46 -131q1 -79 46 -131q47 -52 122 -52q75 1 119 52q46 53 46 131q-1 81 -46 131q-45 52 -119 52zM158 673 q24 24 58 12q11 -4 19 -12q24 -23 12 -57q-4 -12 -12 -20q-24 -24 -58 -12q-11 5 -19 12q-24 24 -12 58q4 11 12 19zM384 689q37 0 51 -32q4 -11 4 -22q0 -36 -33 -50q-11 -4 -22 -4q-37 0 -50 33q-4 11 -4 21q0 36 33 50q10 4 21 4z" glyph-name="odieresis" horiz-adv-x="582" unicode="ö"/>
<glyph d="M187 574q27 27 63 13q12 -5 21 -13q28 -27 14 -62q-5 -13 -14 -22q-28 -25 -64 -12q-12 5 -20 12q-27 27 -13 63q5 12 13 21zM187 209q27 27 63 13q12 -5 21 -13q28 -27 14 -62q-5 -13 -14 -22q-28 -25 -64 -12q-12 5 -20 12q-27 27 -13 63q5 12 13 21zM30 389h412v-78 h-412v78z" glyph-name="divide" horiz-adv-x="472" unicode="÷"/>
<glyph d="M291 515q49 0 98 -18l41 76l54 -24l-43 -80q95 -67 104 -193q1 -12 1 -24q0 -116 -72 -189.5t-183 -73.5q-51 0 -98 17l-40 -76l-54 24l42 79q-106 74 -106 219q1 115 71 189q73 74 185 74zM292 435q-76 -1 -122 -52t-46 -131q1 -91 58 -143l168 316q-28 10 -58 10z M457 252q-1 89 -56 142l-169 -315q25 -10 60 -10q75 1 119 52q46 53 46 131z" glyph-name="oslash" horiz-adv-x="582" unicode="ø"/>
<glyph d="M366 504h86v-504h-77l-5 69q-39 -79 -139 -80q-111 0 -148 99q-14 40 -14 90v326h86v-312q0 -108 80 -119q8 -1 16 -1q69 0 99 69q16 36 16 83v280zM82 732h113l112 -158h-82z" glyph-name="ugrave" horiz-adv-x="528" unicode="ù"/>
<glyph d="M366 504h86v-504h-77l-5 69q-39 -79 -139 -80q-111 0 -148 99q-14 40 -14 90v326h86v-312q0 -108 80 -119q8 -1 16 -1q69 0 99 69q16 36 16 83v280zM325 732h114l-143 -158h-82z" glyph-name="uacute" horiz-adv-x="528" unicode="ú"/>
<glyph d="M366 504h86v-504h-77l-5 69q-39 -79 -139 -80q-111 0 -148 99q-14 40 -14 90v326h86v-312q0 -108 80 -119q8 -1 16 -1q69 0 99 69q16 36 16 83v280zM233 732h56l136 -158h-96l-68 92l-68 -92h-96z" glyph-name="ucircumflex" horiz-adv-x="528" unicode="û"/>
<glyph d="M366 504h86v-504h-77l-5 69q-39 -79 -139 -80q-111 0 -148 99q-14 40 -14 90v326h86v-312q0 -108 80 -119q8 -1 16 -1q69 0 99 69q16 36 16 83v280zM168 689q34 0 49 -30q5 -12 5 -24q0 -37 -33 -50q-11 -4 -21 -4q-37 0 -51 32q-4 11 -4 22q0 36 33 50q11 4 22 4z M316 673q25 25 59 12q11 -5 19 -12q24 -23 12 -57q-4 -12 -12 -20q-25 -24 -59 -11q-11 4 -19 11q-24 25 -12 59q5 11 12 18z" glyph-name="udieresis" horiz-adv-x="528" unicode="ü"/>
<glyph d="M394 504h93l-275 -719h-91l84 222l-189 497h92l133 -362l10 -38l10 38zM313 732h114l-143 -158h-82z" glyph-name="yacute" horiz-adv-x="504" unicode="ý"/>
<glyph d="M83 730h87v-294q58 79 169 79q105 -1 169 -75q65 -75 65 -188q-1 -113 -66 -188t-169 -75q-114 1 -168 80v-284h-87v945zM326 433q-64 -1 -111 -44q-45 -43 -47 -121v-27q1 -79 46 -125q47 -46 111 -46q71 0 114 51q45 52 45 131q0 105 -69 154q-39 27 -89 27z" glyph-name="thorn" horiz-adv-x="609" unicode="þ"/>
</font>
</defs>
</svg>
