<svg xmlns="http://www.w3.org/2000/svg" xmlns:xlink="http://www.w3.org/1999/xlink" width="98" height="28.412" viewBox="0 0 98 28.412">
  <defs>
    <clipPath id="clip-path">
      <path id="Path_379201" data-name="Path 379201" d="M184.5,527.422a1.456,1.456,0,0,1-.233-.671h0a1.425,1.425,0,0,1,.128-.7h0l6.821-15.59a1.359,1.359,0,0,1,1.321-.865,1.41,1.41,0,0,1,.794.222,1.439,1.439,0,0,1,.518.643l6.822,15.591,0,0a1.452,1.452,0,0,1,.119.55,1.43,1.43,0,0,1-.1.542h0a1.359,1.359,0,0,1-.3.478,1.423,1.423,0,0,1-.468.319v0a1.558,1.558,0,0,1-.281.09h0a1.419,1.419,0,0,1-.295.032,1.4,1.4,0,0,1-.791-.222,1.445,1.445,0,0,1-.517-.643l-5.506-12.586-4.632,10.571h6.252a1.421,1.421,0,0,1,1.025.424l0,0a1.441,1.441,0,0,1,.305.467h0a1.458,1.458,0,0,1,.1.548,1.43,1.43,0,0,1-.1.543h0a1.446,1.446,0,0,1-.305.463l0,0a1.418,1.418,0,0,1-1.025.424h-8.442a1.369,1.369,0,0,1-1.211-.645l0,0Zm-17.261.543a1.48,1.48,0,0,1-1.1,0h0a1.566,1.566,0,0,1-.774-.775h0a1.416,1.416,0,0,1-.107-.554v-15.6a1.388,1.388,0,0,1,.108-.544,1.443,1.443,0,0,1,.316-.463h0a1.376,1.376,0,0,1,.458-.317h0a1.417,1.417,0,0,1,.554-.107,1.431,1.431,0,0,1,.553.107h0a1.5,1.5,0,0,1,.784.78,1.388,1.388,0,0,1,.108.544V517.4h8.49v-6.364a1.388,1.388,0,0,1,.109-.544,1.507,1.507,0,0,1,.779-.779,1.391,1.391,0,0,1,.544-.108,1.466,1.466,0,0,1,1.34.887,1.388,1.388,0,0,1,.108.544v15.6a1.415,1.415,0,0,1-.107.554,1.377,1.377,0,0,1-.318.457h0a1.411,1.411,0,0,1-1.025.424,1.391,1.391,0,0,1-.544-.108,1.451,1.451,0,0,1-.463-.316h0a1.369,1.369,0,0,1-.317-.457h0a1.42,1.42,0,0,1-.107-.554v-6.36h-8.49v6.36a1.411,1.411,0,0,1-.107.554,1.377,1.377,0,0,1-.318.457h0a1.439,1.439,0,0,1-.468.317ZM154.9,527.4a9.265,9.265,0,1,1-3.551-17.795,8.906,8.906,0,0,1,6.538,2.7A9.294,9.294,0,0,1,154.9,527.4Zm-1.109-14.449a6.287,6.287,0,0,0-6.939,1.4h0a6.28,6.28,0,0,0-1.392,2.05,6.358,6.358,0,0,0,10.383,6.94h0a6.442,6.442,0,0,0,1.4-6.938,6.275,6.275,0,0,0-1.4-2.051h0a6.272,6.272,0,0,0-2.051-1.4Zm-15.616,15.019a1.438,1.438,0,0,1-.555.108H126.576a1.419,1.419,0,0,1-.553-.107h0a1.567,1.567,0,0,1-.774-.775h0a1.42,1.42,0,0,1-.107-.554v-15.6a1.388,1.388,0,0,1,.109-.544,1.439,1.439,0,0,1,.316-.463h0a1.375,1.375,0,0,1,.457-.317h0a1.488,1.488,0,0,1,1.107,0h0a1.5,1.5,0,0,1,.784.78,1.388,1.388,0,0,1,.108.544v14.159h9.6a1.422,1.422,0,0,1,1.025.424v0a1.475,1.475,0,0,1,.314.465,1.41,1.41,0,0,1-.316,1.564h0a1.436,1.436,0,0,1-.47.317Zm-17.852-1.213a1.459,1.459,0,0,1-.233.671l0,0a1.368,1.368,0,0,1-1.211.645h-8.442a1.418,1.418,0,0,1-1.025-.424l0,0a1.451,1.451,0,0,1-.305-.463h0a1.434,1.434,0,0,1-.1-.543,1.462,1.462,0,0,1,.1-.548h0a1.442,1.442,0,0,1,.305-.467l0,0a1.421,1.421,0,0,1,1.025-.424h6.252l-4.633-10.571-5.505,12.586a1.445,1.445,0,0,1-.518.643,1.4,1.4,0,0,1-.791.222,1.429,1.429,0,0,1-.295-.032h0a1.555,1.555,0,0,1-.28-.09v0a1.423,1.423,0,0,1-.468-.319,1.36,1.36,0,0,1-.3-.478h0a1.411,1.411,0,0,1,.018-1.092v0l6.822-15.591a1.439,1.439,0,0,1,.518-.643,1.409,1.409,0,0,1,.794-.222,1.358,1.358,0,0,1,1.321.865l6.821,15.59h0a1.419,1.419,0,0,1,.127.7Z" transform="translate(-103.796 -509.601)" fill="#fff" clip-rule="evenodd"/>
    </clipPath>
    <linearGradient id="linear-gradient" x1="1" x2="0" gradientUnits="objectBoundingBox">
      <stop offset="0" stop-color="#ba00fe"/>
      <stop offset="0.091" stop-color="#6858ff"/>
      <stop offset="0.182" stop-color="#007bff"/>
      <stop offset="0.273" stop-color="#0093ff"/>
      <stop offset="0.364" stop-color="#00a5ff"/>
      <stop offset="0.455" stop-color="#00b2ff"/>
      <stop offset="0.545" stop-color="#00bdff"/>
      <stop offset="0.636" stop-color="#00c6fa"/>
      <stop offset="0.727" stop-color="#00cdd8"/>
      <stop offset="0.818" stop-color="#00d3b7"/>
      <stop offset="0.909" stop-color="#00d898"/>
      <stop offset="1" stop-color="#04db7e"/>
    </linearGradient>
  </defs>
  <g id="Group_6083" data-name="Group 6083" transform="translate(-1)">
    <text id="HEALTH_NETWORK" data-name="HEALTH NETWORK" transform="translate(50 27.412)" fill="#fff" font-size="7" font-family="Metropolis-Thin, Metropolis" font-weight="200" letter-spacing="0.367em"><tspan x="-48.583" y="0">HEALTH NETWORK</tspan></text>
    <g id="Mask_Group_188" data-name="Mask Group 188" transform="translate(1)" clip-path="url(#clip-path)">
      <rect id="gradient" width="98.089" height="22.549" transform="translate(-0.115 -1.237)" fill="url(#linear-gradient)"/>
    </g>
  </g>
</svg>
