<svg xmlns="http://www.w3.org/2000/svg" xmlns:xlink="http://www.w3.org/1999/xlink" width="136" height="38.944" viewBox="0 0 136 38.944">
  <defs>
    <clipPath id="clip-path">
      <path id="Path_379203" data-name="Path 379203" d="M216.112,534.4a2.027,2.027,0,0,1-.324-.934h0a1.983,1.983,0,0,1,.178-.968h0l9.493-21.7a1.891,1.891,0,0,1,1.838-1.2,1.963,1.963,0,0,1,1.106.309,2,2,0,0,1,.721.9l9.494,21.7,0,0a2.021,2.021,0,0,1,.166.765,1.991,1.991,0,0,1-.141.755h0a1.892,1.892,0,0,1-.411.665,1.979,1.979,0,0,1-.651.443v0a2.166,2.166,0,0,1-.391.126h0a1.973,1.973,0,0,1-.41.044,1.946,1.946,0,0,1-1.1-.309,2.01,2.01,0,0,1-.72-.9L227.3,516.587,220.85,531.3h8.7a1.977,1.977,0,0,1,1.426.59l0,.007a2.005,2.005,0,0,1,.424.65v0a2.029,2.029,0,0,1,.143.762,1.99,1.99,0,0,1-.143.756v0a2.012,2.012,0,0,1-.424.644l0,.007a1.973,1.973,0,0,1-1.426.59H217.8a1.9,1.9,0,0,1-1.685-.9l0-.007Zm-24.021.756a2.06,2.06,0,0,1-1.537,0h0a2.18,2.18,0,0,1-1.078-1.079h0a1.97,1.97,0,0,1-.149-.771V511.593a1.931,1.931,0,0,1,.151-.758,2.008,2.008,0,0,1,.44-.645h0a1.915,1.915,0,0,1,.637-.441h0a1.971,1.971,0,0,1,.771-.149,1.991,1.991,0,0,1,.769.149h0a2.083,2.083,0,0,1,1.091,1.085,1.931,1.931,0,0,1,.151.758v8.856h11.814v-8.856a1.931,1.931,0,0,1,.151-.758,2.1,2.1,0,0,1,1.084-1.084,1.937,1.937,0,0,1,.758-.15,2.04,2.04,0,0,1,1.865,1.235,1.931,1.931,0,0,1,.151.758v21.715a1.969,1.969,0,0,1-.149.771,1.916,1.916,0,0,1-.442.636h0a1.964,1.964,0,0,1-1.426.59,1.935,1.935,0,0,1-.758-.15,2.019,2.019,0,0,1-.645-.44h0a1.9,1.9,0,0,1-.441-.636h0a1.975,1.975,0,0,1-.149-.771v-8.85H193.335v8.85a1.963,1.963,0,0,1-.149.771,1.916,1.916,0,0,1-.442.636h0a2,2,0,0,1-.651.442Zm-17.18-.793A12.894,12.894,0,1,1,169.97,509.6a12.393,12.393,0,0,1,9.1,3.76,12.934,12.934,0,0,1-4.157,21Zm-1.543-20.108a8.749,8.749,0,0,0-9.656,1.951h0a8.739,8.739,0,0,0-1.938,2.853,8.848,8.848,0,0,0,14.449,9.658h0a8.965,8.965,0,0,0,1.951-9.656,8.733,8.733,0,0,0-1.95-2.855h0a8.728,8.728,0,0,0-2.854-1.95Zm-21.732,20.9a2,2,0,0,1-.772.15H135.5a1.974,1.974,0,0,1-.77-.149h0a2.181,2.181,0,0,1-1.077-1.079h0a1.976,1.976,0,0,1-.149-.771V511.593a1.932,1.932,0,0,1,.151-.758,2,2,0,0,1,.439-.645h0a1.914,1.914,0,0,1,.636-.441h0a2.07,2.07,0,0,1,1.54,0h0a2.085,2.085,0,0,1,1.091,1.085,1.931,1.931,0,0,1,.151.758v19.7h13.357a1.979,1.979,0,0,1,1.426.59v0a2.052,2.052,0,0,1,.437.647,1.962,1.962,0,0,1-.44,2.177h0a2,2,0,0,1-.654.441Zm-24.843-1.688a2.031,2.031,0,0,1-.324.934l-.006.007a1.9,1.9,0,0,1-1.685.9H113.031a1.973,1.973,0,0,1-1.426-.59l0-.007a2.019,2.019,0,0,1-.425-.644v0a2,2,0,0,1-.143-.756,2.035,2.035,0,0,1,.143-.762v0a2.007,2.007,0,0,1,.425-.65l0-.007a1.977,1.977,0,0,1,1.426-.59h8.7l-6.447-14.711L107.623,534.1a2.011,2.011,0,0,1-.72.9,1.948,1.948,0,0,1-1.1.309,1.987,1.987,0,0,1-.41-.044h0a2.162,2.162,0,0,1-.39-.126l0,0a1.979,1.979,0,0,1-.651-.443,1.893,1.893,0,0,1-.411-.665h0a1.964,1.964,0,0,1,.025-1.52l0,0,9.494-21.7a2,2,0,0,1,.721-.9,1.961,1.961,0,0,1,1.105-.309,1.89,1.89,0,0,1,1.838,1.2l9.493,21.7h0a1.975,1.975,0,0,1,.177.968Z" transform="translate(-103.796 -509.601)" fill="#fff" clip-rule="evenodd"/>
    </clipPath>
    <linearGradient id="linear-gradient" x1="1" x2="0" gradientUnits="objectBoundingBox">
      <stop offset="0" stop-color="#ba00fe"/>
      <stop offset="0.091" stop-color="#6858ff"/>
      <stop offset="0.182" stop-color="#007bff"/>
      <stop offset="0.273" stop-color="#0093ff"/>
      <stop offset="0.364" stop-color="#00a5ff"/>
      <stop offset="0.455" stop-color="#00b2ff"/>
      <stop offset="0.545" stop-color="#00bdff"/>
      <stop offset="0.636" stop-color="#00c6fa"/>
      <stop offset="0.727" stop-color="#00cdd8"/>
      <stop offset="0.818" stop-color="#00d3b7"/>
      <stop offset="0.909" stop-color="#00d898"/>
      <stop offset="1" stop-color="#04db7e"/>
    </linearGradient>
  </defs>
  <g id="Group_6126" data-name="Group 6126" transform="translate(-112 -4681.607)">
    <text id="HEALTH_NETWORK" data-name="HEALTH NETWORK" transform="translate(180 4718.552)" fill="#fff" font-size="10" font-family="Metropolis-Thin, Metropolis" font-weight="200" letter-spacing="0.345em"><tspan x="-67.975" y="0">HEALTH NETWORK</tspan></text>
    <g id="Mask_Group_193" data-name="Mask Group 193" transform="translate(113 4681.607)" clip-path="url(#clip-path)">
      <rect id="gradient" width="136.502" height="31.38" transform="translate(-0.16 -1.722)" fill="url(#linear-gradient)"/>
    </g>
  </g>
</svg>
